<?xml version="1.0" standalone="no"?>
<!DOCTYPE svg PUBLIC "-//W3C//DTD SVG 20010904//EN"
 "http://www.w3.org/TR/2001/REC-SVG-20010904/DTD/svg10.dtd">
<svg version="1.0" xmlns="http://www.w3.org/2000/svg"
 width="752.000000pt" height="752.000000pt" viewBox="0 0 752.000000 752.000000"
 preserveAspectRatio="xMidYMid meet">
<metadata>
Created by potrace 1.13, written by Peter Selinger 2001-2015
</metadata>
<g transform="translate(0.000000,752.000000) scale(0.080000,-0.080000)"
fill="#000000" stroke="none">
<path d="M0 4700 l0 -4700 4700 0 4700 0 0 1425 0 1426 -24 -26 c-13 -14 -27
-25 -31 -25 -4 0 -23 -7 -42 -16 -25 -13 -31 -19 -21 -26 10 -7 9 -11 -5 -23
-11 -7 -25 -11 -32 -8 -8 2 -22 0 -32 -6 -17 -10 -17 -10 2 -11 18 -1 19 -1 2
-11 -9 -5 -22 -7 -27 -4 -6 3 -14 -5 -19 -18 -12 -31 -31 -45 -24 -17 3 11 0
20 -6 20 -6 0 -11 -4 -11 -10 0 -15 -42 -50 -52 -44 -5 4 -20 -4 -33 -16 -21
-19 -28 -21 -54 -12 -17 6 -31 8 -31 4 0 -5 -20 -13 -45 -20 -25 -7 -45 -16
-45 -22 0 -5 -7 -10 -15 -10 -8 0 -15 5 -15 11 0 7 -10 9 -26 5 -76 -19 -88
-20 -81 -3 8 21 -2 22 -17 1 -6 -8 -31 -17 -56 -20 -39 -5 -42 -4 -31 10 15
18 21 17 -81 22 -37 2 -70 -1 -73 -6 -8 -13 -102 -13 -110 0 -3 5 -19 10 -35
10 -33 0 -48 15 -24 24 9 4 14 9 12 12 -3 3 -22 -4 -42 -16 -39 -21 -71 -27
-61 -10 4 6 11 8 16 5 5 -4 9 -1 9 5 0 6 -13 19 -30 28 -16 9 -35 27 -41 39
-7 13 -18 23 -25 23 -8 0 -11 6 -8 15 4 8 1 15 -4 15 -6 0 -13 8 -16 18 -4 10
-16 29 -29 43 -12 13 -22 26 -22 29 0 3 -10 16 -22 30 -13 13 -23 31 -23 40 0
9 -13 23 -29 33 -15 9 -34 30 -41 47 -7 16 -18 30 -26 30 -16 0 -34 31 -34 59
0 13 -5 18 -13 15 -15 -5 -44 23 -33 33 3 3 22 7 41 8 27 0 35 -3 35 -17 0
-14 7 -18 28 -17 15 1 70 -1 122 -4 52 -3 86 -3 76 0 -14 4 -16 7 -6 13 8 5
27 0 46 -11 23 -12 45 -17 66 -13 18 3 41 5 51 5 9 0 17 5 17 10 0 6 10 3 22
-5 12 -9 33 -16 46 -16 17 0 22 -4 19 -15 -9 -21 10 -29 21 -9 6 10 12 13 16
6 3 -6 2 -13 -4 -17 -16 -10 -12 -35 5 -29 8 4 12 10 9 15 -6 11 4 11 31 -1
11 -5 14 -9 8 -9 -7 -1 -13 -8 -13 -17 0 -12 6 -15 22 -11 12 4 28 1 35 -5 7
-6 28 -8 50 -4 21 4 50 8 64 9 14 1 33 9 41 18 10 10 30 15 54 13 l39 -3 -23
19 c-26 22 -21 44 9 35 28 -9 23 8 -7 22 -20 9 -30 9 -44 0 -15 -9 -23 -7 -40
8 -11 10 -18 25 -16 32 3 7 1 14 -4 14 -6 1 -15 2 -20 3 -6 0 -15 8 -20 16 -8
13 -11 13 -19 1 -11 -17 -31 -6 -31 19 0 10 -9 22 -20 25 -11 3 -20 11 -20 16
0 13 -34 11 -49 -3 -10 -11 -11 -10 -6 5 5 13 2 17 -13 17 -15 0 -19 5 -15 21
4 15 0 22 -16 26 -11 3 -21 13 -21 22 0 10 -18 26 -42 39 -33 16 -39 22 -25
28 24 9 21 19 -8 32 -14 6 -25 19 -25 28 0 11 -5 14 -17 10 -11 -5 -23 1 -35
16 l-17 23 -7 -32 c-4 -18 -11 -33 -16 -33 -5 0 -16 -16 -24 -35 -16 -39 -25
-46 -17 -14 4 16 2 20 -8 17 -8 -3 -13 -15 -11 -28 5 -34 -18 -70 -44 -70 -13
0 -26 -5 -30 -11 -4 -8 -9 -7 -15 2 -6 11 -16 11 -54 1 -26 -7 -52 -9 -58 -5
-7 4 -19 6 -28 5 -9 -2 -19 4 -22 13 -8 18 -33 20 -41 3 -3 -7 -4 0 -1 16 5
23 3 27 -9 23 -10 -4 -20 2 -26 14 -6 11 -22 24 -35 29 -22 8 -23 12 -12 39 9
25 8 33 -8 51 -17 18 -17 24 -6 43 10 15 10 22 2 25 -6 2 -11 9 -11 16 0 6 -9
19 -20 29 -26 22 -16 41 16 33 28 -7 29 -3 10 27 -19 30 -10 81 17 92 23 10
37 55 18 55 -6 0 -11 5 -11 10 0 6 6 10 14 10 9 0 15 21 20 70 7 69 8 70 36
70 16 0 30 -7 34 -16 4 -10 13 -13 25 -9 12 3 21 0 25 -10 3 -8 16 -15 30 -15
27 0 43 -16 24 -23 -7 -2 -10 -8 -5 -12 4 -5 13 -3 19 3 17 17 31 15 24 -3 -3
-8 -1 -15 4 -15 6 0 10 4 10 10 0 5 7 7 16 3 10 -4 12 -8 4 -13 -18 -11 -1
-34 40 -53 22 -10 40 -25 40 -33 0 -21 30 -5 41 22 4 13 16 24 24 24 9 0 13 5
10 10 -3 6 -1 10 5 10 6 0 13 -7 16 -15 7 -17 41 -20 63 -6 15 10 50 -5 64
-27 5 -7 12 -10 18 -7 5 4 13 -5 19 -19 5 -15 13 -25 17 -24 5 2 25 -14 45
-36 20 -21 40 -36 45 -33 5 3 10 -3 10 -14 1 -10 11 -32 22 -48 12 -16 19 -36
15 -44 -8 -21 28 -27 126 -21 90 6 172 23 164 35 -7 12 31 20 52 12 17 -6 17
-5 5 10 -12 15 -11 17 12 17 14 0 31 9 40 22 12 19 18 21 28 11 19 -19 29 -16
29 7 0 13 9 22 25 26 14 3 25 13 25 21 0 12 3 13 13 5 9 -8 16 -6 25 8 6 11
30 24 52 30 22 6 40 15 40 21 0 6 5 7 10 4 6 -3 10 1 10 9 0 8 7 19 16 24 27
15 -12 61 -51 62 -16 0 -36 4 -44 9 -10 7 -22 4 -38 -9 -13 -10 -46 -21 -73
-25 -28 -4 -50 -10 -50 -14 0 -15 -69 -32 -88 -22 -20 11 -62 4 -62 -9 0 -5 6
-11 12 -14 7 -3 3 -3 -10 0 -12 3 -43 7 -68 9 -49 4 -86 28 -77 51 3 8 -5 16
-20 19 -17 5 -27 16 -30 33 -3 15 -1 28 3 30 13 5 -12 42 -27 42 -7 0 -13 7
-13 15 0 9 -6 12 -15 9 -8 -4 -15 -1 -15 5 0 6 6 11 14 11 16 0 31 34 21 50
-3 5 -13 10 -21 10 -8 0 -14 10 -14 25 0 14 5 25 10 25 6 0 10 5 10 12 0 6 -3
8 -7 5 -3 -4 -13 -1 -21 6 -13 9 -14 9 -8 0 4 -8 2 -13 -4 -13 -8 0 -9 10 -5
30 4 16 1 45 -6 64 -11 30 -10 38 7 63 10 15 21 37 24 47 3 11 32 33 65 49 51
26 56 31 38 38 -12 4 -27 18 -33 31 -9 20 -9 21 2 7 9 -11 23 -15 46 -11 34 5
41 22 17 42 -21 17 -31 5 -14 -16 12 -14 11 -16 -6 -13 -11 3 -20 11 -20 19 0
10 -10 15 -28 15 -15 -1 -27 3 -27 7 0 4 -7 8 -16 8 -11 0 -14 -5 -10 -16 3
-9 -3 -29 -14 -44 -19 -26 -26 -29 -70 -27 -46 2 -64 11 -39 19 23 8 -4 38
-33 38 -20 0 -29 4 -25 13 3 9 -8 11 -45 8 -33 -2 -55 2 -66 11 -9 8 -35 15
-57 15 -34 1 -37 -1 -22 -12 9 -6 17 -17 17 -24 0 -14 -27 -15 -35 -1 -10 17
-35 11 -35 -7 -1 -28 -25 -53 -52 -53 -28 0 -57 -23 -77 -62 -13 -25 -30 -32
-111 -42 -15 -2 -26 -10 -28 -22 -9 -49 -42 -37 -42 15 0 18 -4 22 -20 18 -11
-3 -23 -1 -26 4 -3 5 -14 9 -24 9 -21 0 -44 32 -32 45 4 4 -5 5 -20 1 -21 -5
-28 -2 -33 15 -6 18 -12 20 -43 15 -21 -3 -50 -6 -66 -6 -46 1 -66 -9 -66 -34
0 -12 4 -26 9 -31 5 -6 5 -20 -2 -35 -8 -21 -11 -22 -14 -7 -5 19 -43 24 -44
5 0 -7 -4 -2 -10 10 -5 13 -6 28 -3 33 8 14 -23 22 -42 11 -11 -6 -27 -7 -42
-1 -20 8 -25 6 -29 -11 -4 -16 -9 -18 -24 -9 -10 5 -19 16 -19 24 0 7 -6 16
-12 19 -7 3 -1 3 15 0 15 -4 27 -2 27 3 0 14 -42 50 -67 57 -26 8 -38 -7 -18
-24 19 -16 10 -30 -18 -30 -23 0 -52 34 -42 50 11 18 -7 60 -26 60 -10 0 -19
4 -19 9 0 14 -32 23 -43 12 -6 -6 -1 -12 17 -17 32 -8 34 -22 3 -33 -13 -5
-28 -16 -35 -24 -10 -12 -8 -17 12 -31 14 -9 29 -16 34 -16 5 0 15 -7 22 -15
10 -13 10 -19 -5 -35 -14 -15 -15 -23 -6 -34 18 -21 0 -28 -67 -25 -50 3 -57
1 -60 -17 -2 -17 2 -19 36 -16 41 4 63 -11 44 -30 -5 -5 -31 -10 -58 -11 l-49
-2 -3 -37 c-2 -21 -7 -38 -13 -38 -5 0 -9 -9 -9 -20 0 -24 13 -26 30 -5 17 20
24 19 57 -9 l28 -24 -28 -7 c-15 -4 -33 -15 -40 -25 -6 -9 -22 -22 -34 -29
-13 -6 -23 -18 -23 -26 0 -43 -32 3 -35 50 0 13 -7 19 -18 17 -9 -2 -17 1 -17
6 0 5 -10 13 -22 16 l-23 6 24 20 c26 22 26 24 -5 34 -27 8 -35 -9 -24 -55 4
-19 8 -31 9 -27 1 4 10 0 21 -9 19 -16 19 -18 3 -24 -10 -3 -28 1 -40 9 -13 8
-23 11 -23 7 0 -4 -10 5 -22 21 -13 16 -26 31 -31 32 -4 2 -3 10 3 17 13 16 2
45 -17 45 -12 0 -13 -8 -8 -40 6 -36 5 -40 -14 -40 -13 0 -21 6 -21 16 0 9 -9
27 -19 40 -11 13 -17 33 -14 43 6 23 -71 108 -102 113 -13 2 -21 12 -23 31 -3
24 -8 27 -38 27 -19 0 -34 5 -34 11 0 5 -12 26 -27 45 -21 25 -36 34 -58 34
-16 0 -45 9 -64 21 l-34 21 26 24 c45 41 37 47 -66 60 -49 5 -57 9 -52 24 5
16 -5 19 -98 25 -57 4 -114 4 -126 0 -35 -11 -103 4 -97 21 3 8 0 16 -7 18
-37 11 -183 40 -189 38 -4 -1 -5 5 -2 13 4 8 11 15 16 15 6 0 5 7 -2 15 -10
13 -10 19 5 35 10 11 13 20 7 20 -7 0 -12 -4 -12 -8 0 -17 -63 1 -67 19 -3 11
-14 19 -27 19 -12 0 -31 7 -42 15 -19 14 -18 14 4 15 12 0 22 4 22 9 0 10 -84
41 -112 41 -10 0 -18 7 -18 15 0 8 -7 15 -15 15 -8 0 -15 5 -15 11 0 6 9 9 19
6 14 -3 18 -1 14 9 -6 17 -35 26 -57 18 -9 -3 -16 -2 -16 3 0 12 -69 48 -77
40 -9 -9 -43 23 -43 40 0 7 -3 13 -7 13 -5 0 -28 18 -53 39 -37 32 -42 41 -32
54 15 18 4 28 -49 47 -21 8 -44 26 -54 42 -15 27 -20 29 -56 23 -24 -4 -39 -3
-39 3 0 6 12 12 27 14 14 2 28 9 31 17 3 9 -1 11 -16 7 -13 -4 -31 0 -48 10
-21 14 -30 15 -45 6 -10 -7 -26 -12 -35 -12 -13 0 -14 3 -4 15 7 8 16 13 20
10 5 -3 11 -1 15 5 3 5 -1 10 -9 10 -8 0 -18 -5 -22 -11 -3 -6 -18 -8 -33 -5
-19 5 -22 4 -11 -4 12 -8 11 -10 -7 -10 -12 0 -25 5 -28 10 -4 6 -15 8 -26 5
-10 -4 -19 -2 -19 4 0 30 182 45 270 21 35 -9 45 -9 51 2 5 7 12 19 17 25 9
15 98 44 106 35 4 -3 6 -16 6 -29 0 -16 8 -27 24 -33 31 -11 94 -2 98 15 2 10
13 10 51 0 39 -10 49 -10 58 2 14 16 9 22 -21 28 -28 5 -34 11 -25 24 4 7 26
10 56 7 40 -4 51 -1 63 15 13 19 14 19 21 2 5 -10 7 -21 7 -25 -1 -5 10 -8 25
-8 22 0 25 -2 13 -10 -12 -8 -9 -10 13 -10 18 0 27 -5 27 -16 0 -12 6 -15 24
-10 15 4 26 1 29 -7 2 -8 36 -14 98 -18 113 -8 229 -27 246 -41 7 -5 17 -7 24
-3 6 4 14 3 18 -2 6 -11 96 -26 276 -49 28 -3 56 -11 64 -18 11 -8 15 -8 18 2
5 13 33 17 33 4 0 -17 100 -41 240 -58 25 -3 50 -9 55 -14 12 -9 205 -33 253
-31 23 1 32 -3 32 -15 0 -12 3 -14 13 -6 8 7 24 6 52 -4 45 -15 67 -18 46 -5
-7 5 -9 11 -5 13 12 6 56 -17 48 -25 -4 -3 11 -6 32 -5 22 0 53 -5 69 -11 17
-7 32 -12 34 -11 2 1 7 -2 10 -7 3 -4 29 -19 56 -33 28 -14 52 -28 55 -31 3
-3 13 -8 23 -12 9 -4 22 -18 27 -32 7 -18 14 -23 26 -18 11 4 15 3 10 -5 -8
-13 27 -38 66 -47 15 -4 32 -13 39 -21 14 -17 49 -19 49 -3 0 6 19 -3 42 -20
49 -36 58 -38 51 -12 -3 11 2 21 11 24 9 4 16 2 16 -3 0 -5 8 -11 18 -13 16
-4 16 -5 0 -6 -10 0 -18 -5 -18 -11 0 -5 26 -10 58 -12 48 -3 57 -6 54 -21 -2
-10 3 -17 12 -17 8 0 16 -4 18 -9 5 -13 68 -25 68 -12 0 6 -10 11 -23 11 -23
0 -47 17 -47 33 0 5 20 6 46 2 33 -5 45 -3 42 5 -2 6 -7 11 -12 10 -5 -1 -13
4 -17 12 -15 23 -10 48 13 57 20 7 18 8 -13 15 -18 3 -61 4 -94 1 -33 -3 -54
-2 -47 1 10 5 10 9 1 20 -7 8 -13 37 -15 64 -2 41 1 50 17 55 10 4 19 14 19
24 0 10 9 26 19 35 11 10 17 25 14 33 -4 9 0 21 8 27 8 6 15 21 16 34 2 18 -2
22 -23 22 -22 0 -25 -4 -22 -27 2 -23 -1 -27 -19 -26 -41 2 -44 3 -38 13 4 6
10 8 15 5 13 -8 -1 33 -15 45 -9 8 -15 8 -20 0 -8 -13 -25 -13 -25 0 0 6 7 10
15 10 8 0 15 4 15 9 0 5 -7 14 -15 21 -15 12 -21 40 -9 40 4 0 13 -8 20 -17 7
-10 16 -15 20 -11 4 4 1 14 -6 23 -17 20 17 108 40 102 14 -4 40 14 40 28 0 3
10 15 22 27 18 18 36 23 100 26 43 2 78 3 79 1 0 -2 3 -24 5 -49 3 -25 10 -47
15 -49 6 -1 3 -11 -6 -21 -16 -17 -15 -19 4 -30 12 -6 25 -8 30 -6 5 3 11 0
14 -8 3 -8 -1 -17 -9 -20 -31 -12 -14 -28 22 -22 30 6 36 4 41 -13 6 -23 48
-47 99 -57 38 -7 44 -19 15 -29 -29 -9 -15 -33 15 -27 17 3 24 0 24 -12 0 -9
-6 -16 -12 -16 -8 0 -13 -13 -12 -36 1 -41 20 -67 30 -41 10 26 22 20 29 -14
4 -19 12 -29 20 -25 7 2 24 -8 38 -22 26 -27 26 -27 6 -51 -18 -22 -20 -23
-38 -7 -17 15 -19 15 -25 1 -4 -12 -14 -14 -41 -9 -28 5 -36 3 -41 -11 -8 -20
13 -37 39 -31 10 2 22 -4 28 -16 9 -17 8 -18 -10 -9 -28 15 -29 15 -26 -21 3
-40 41 -57 90 -39 17 6 41 11 54 11 12 0 20 4 16 9 -3 5 -1 13 5 16 6 4 8 15
5 25 -7 21 21 36 39 21 7 -6 27 -6 51 -1 22 5 51 6 64 3 20 -5 23 -3 17 12 -6
16 -1 17 39 13 50 -6 53 -3 28 24 -21 23 -12 32 18 18 16 -7 38 -8 64 -2 l40
8 -49 8 c-51 8 -88 38 -79 63 3 7 -1 13 -8 13 -7 0 -9 3 -6 7 4 4 31 6 60 4
44 -2 56 2 74 21 39 42 87 68 124 68 16 0 19 5 14 20 -4 11 -2 20 4 20 20 0
12 32 -9 37 -23 6 -27 33 -5 33 8 0 14 3 13 8 -1 6 4 31 18 83 6 22 67 33 94
19 17 -9 41 -50 41 -70 0 -3 6 -12 12 -20 21 -27 39 -62 28 -55 -6 3 -11 1
-11 -5 0 -6 8 -9 18 -6 21 7 35 -2 51 -32 12 -22 14 -22 36 -8 28 19 46 21 43
5 -2 -6 3 -14 9 -16 7 -3 13 2 13 11 0 10 6 13 15 10 13 -5 15 234 15 2120 l0
2126 -4700 0 -4700 0 0 -4700z m5845 4671 c-3 -6 -25 -11 -47 -11 -48 0 -45 9
4 17 18 3 35 7 37 9 8 8 13 -5 6 -15z m-67 -134 c4 7 13 9 21 4 11 -7 8 -12
-10 -21 -13 -7 -27 -18 -31 -24 -10 -15 -22 20 -14 41 6 15 8 15 17 3 7 -11
11 -12 17 -3z m-292 -242 c4 -8 12 -15 20 -15 7 0 24 -12 37 -26 21 -22 23
-31 17 -66 -8 -43 -32 -79 -29 -43 1 11 1 31 -1 45 -2 19 -4 15 -9 -15 -4 -22
-3 -48 2 -58 10 -22 -15 -50 -37 -41 -9 3 -16 2 -17 -2 -3 -49 -10 -87 -19
-104 -7 -13 -7 -20 0 -20 5 0 10 -5 10 -11 0 -6 -7 -9 -15 -5 -8 3 -15 0 -15
-5 0 -6 -9 -9 -20 -6 -11 3 -25 -2 -32 -12 -11 -14 -11 -14 4 -3 10 8 18 9 22
3 7 -11 -33 -37 -51 -33 -7 2 -13 -2 -13 -8 0 -5 -13 -10 -30 -10 -16 0 -30
-3 -30 -8 0 -8 -59 -36 -65 -31 -8 9 12 73 24 77 9 3 11 -2 6 -17 -5 -15 -2
-21 9 -21 9 0 16 7 16 15 0 8 8 15 18 15 14 0 15 -2 2 -10 -12 -8 -10 -10 9
-10 16 0 21 4 18 15 -4 8 -2 17 4 21 6 3 6 10 1 17 -6 7 -8 29 -7 49 4 43 -2
50 -33 41 -19 -4 -22 -11 -19 -41 3 -23 10 -38 22 -42 34 -12 1 -18 -71 -12
-21 2 -23 14 -15 97 2 19 3 19 11 -2 12 -31 30 -29 30 2 0 14 9 30 20 37 11 7
20 19 20 26 0 7 -4 10 -10 7 -6 -4 -10 5 -10 20 0 16 7 28 18 31 35 11 45 20
56 53 8 25 24 41 59 60 27 14 53 34 58 44 12 21 28 22 35 2z m-867 -104 c9 -6
22 -6 34 0 14 8 23 7 35 -4 9 -7 38 -21 65 -31 31 -12 47 -23 47 -35 0 -10 11
-23 24 -31 16 -8 28 -27 35 -54 7 -28 20 -47 41 -61 32 -21 38 -43 18 -63 -9
-9 -9 -12 0 -12 7 0 12 -9 12 -20 0 -14 6 -20 17 -18 11 2 19 -5 21 -17 2 -11
11 -24 18 -28 8 -5 12 -12 9 -18 -4 -5 0 -9 8 -9 8 0 20 13 25 28 l10 29 56
-10 c40 -7 56 -15 56 -26 1 -14 2 -14 13 1 8 10 18 14 26 8 11 -6 9 -10 -7
-19 -24 -13 -52 -14 -52 -3 0 4 -17 7 -37 5 -32 -2 -34 -1 -13 6 23 8 23 9 6
16 -13 6 -23 3 -33 -11 -13 -18 -11 -19 24 -24 l38 -6 -45 -6 c-25 -3 -79 -11
-120 -17 -94 -15 -398 -4 -454 15 -21 8 -49 14 -63 14 -13 0 -58 18 -100 40
-43 22 -82 40 -89 40 -6 0 -24 10 -40 23 -15 12 -39 27 -53 34 -15 6 -20 12
-12 12 12 1 30 -7 124 -56 26 -14 30 -13 41 3 8 10 18 14 26 9 10 -6 9 -9 -1
-16 -11 -7 -11 -9 -1 -9 24 0 54 21 48 35 -3 8 -1 17 5 20 18 12 -2 25 -37 25
-20 0 -42 -7 -50 -15 -9 -8 -20 -15 -25 -15 -5 0 -9 7 -9 15 0 8 9 15 19 15
27 0 35 17 11 23 -11 3 -20 11 -20 17 0 8 8 10 23 5 12 -4 49 -7 82 -7 45 1
62 5 72 18 20 27 16 49 -11 64 -21 11 -27 10 -40 -3 -9 -9 -16 -20 -16 -26 0
-6 -4 -11 -10 -11 -5 0 -10 7 -10 15 0 8 5 15 10 15 18 0 11 20 -7 21 -18 2
74 19 114 22 15 1 21 8 21 22 -2 67 9 80 43 49 19 -17 39 -11 39 12 0 16 18
18 39 5z m4716 -131 c-2 -4 8 -5 23 -2 26 4 26 4 7 -12 -25 -20 -45 -20 -45
-1 0 8 -4 15 -10 15 -5 0 -10 10 -10 22 0 20 1 21 20 3 11 -10 18 -21 15 -25z
m-3455 -1810 c0 -9 5 -21 11 -27 6 -6 8 -16 5 -22 -9 -14 -36 -14 -36 -1 0 6
-12 22 -27 35 -28 23 -28 23 -8 43 18 18 22 18 38 4 9 -8 17 -23 17 -32z m400
-240 c0 -23 -3 -28 -17 -23 -11 4 -14 3 -9 -5 4 -7 3 -12 -1 -12 -14 0 -42 86
-33 101 6 9 10 5 15 -17 12 -55 15 -58 28 -45 8 8 9 14 1 19 -6 4 -14 25 -18
47 l-7 40 20 -37 c12 -21 21 -51 21 -68z m-1825 30 c15 13 45 3 45 -15 0 -8
16 -19 35 -26 31 -12 33 -14 20 -29 -13 -14 -24 -15 -72 -8 -32 5 -60 14 -64
20 -4 6 -12 7 -18 4 -7 -5 -11 1 -11 14 0 16 -4 20 -16 16 -11 -4 -14 -1 -12
12 4 21 71 34 76 14 3 -9 7 -10 17 -2z m1310 -49 c7 -12 -33 -41 -57 -41 -23
0 -13 24 15 38 28 14 35 14 42 3z m128 -88 c-3 -8 2 -14 13 -15 39 -3 49 -5
67 -13 9 -4 33 -5 52 -3 31 4 35 1 35 -19 0 -25 -15 -31 -23 -10 -3 7 -6 5 -6
-5 -1 -11 -9 -18 -21 -18 -12 0 -17 -5 -14 -14 7 -19 -31 -27 -68 -14 l-31 11
21 18 c28 22 28 29 -3 29 -14 0 -28 7 -31 15 -7 18 -41 20 -46 3 -3 -7 -11 -9
-24 -4 -19 8 -19 8 1 16 18 7 19 8 3 15 -29 12 -12 22 36 22 33 0 43 -4 39
-14z m-1102 -188 c-6 -39 -23 -51 -29 -21 -3 13 27 71 33 64 2 -2 0 -21 -4
-43z m-40 -35 c5 0 9 -4 9 -9 0 -13 -52 -91 -61 -91 -10 0 -15 37 -10 78 4 36
24 39 29 4 2 -12 8 -22 14 -22 6 0 8 15 5 38 -3 20 -3 29 -1 20 3 -10 10 -18
15 -18z m-215 -11 c3 -5 0 -9 -5 -9 -6 0 -10 -4 -8 -9 3 -13 -15 -9 -35 8 -30
26 -23 42 12 29 17 -5 33 -14 36 -19z m664 -80 c0 -22 -4 -30 -14 -26 -7 3
-19 0 -25 -6 -13 -13 -16 -10 -25 23 -4 14 -4 20 1 14 14 -19 45 -13 40 8 -3
11 0 18 9 18 9 0 14 -11 14 -31z m389 10 c-27 -21 -49 -24 -49 -9 0 11 34 27
58 27 9 0 6 -7 -9 -18z m-2027 -10 c40 -6 78 -12 84 -13 7 -1 18 -6 25 -12 8
-6 40 -18 72 -28 31 -9 57 -19 57 -22 0 -11 -93 7 -124 23 -31 17 -55 23 -88
24 -10 0 -18 3 -18 7 0 11 -130 17 -362 16 -120 0 -218 3 -218 7 0 20 443 18
572 -2z m-662 -20 c0 -7 -32 -10 -99 -7 -55 1 -95 0 -89 -3 21 -13 -10 -18
-48 -7 -37 11 -38 12 -14 19 41 12 250 11 250 -2z m2704 -14 c-7 -18 -5 -18
37 -1 19 7 40 11 47 9 22 -8 12 -31 -19 -42 -26 -9 -28 -13 -17 -25 7 -8 15
-10 16 -5 2 5 11 9 19 9 13 0 13 -3 2 -16 -18 -22 -20 -58 -2 -43 9 9 17 8 28
-1 14 -11 13 -15 -5 -27 -18 -13 -24 -13 -38 -1 -15 12 -115 44 -204 64 -16 3
-28 10 -28 16 0 5 4 7 9 4 5 -4 16 -3 25 0 13 5 14 9 5 20 -18 22 -5 26 26 10
25 -13 31 -13 54 2 14 9 30 22 34 29 11 18 18 16 11 -2z m-169 -26 c0 -20 -27
-22 -50 -3 -16 13 -17 15 -3 10 10 -3 20 -1 24 5 8 14 29 6 29 -12z m-960 2
c3 -5 1 -13 -5 -16 -15 -9 -43 3 -35 15 8 13 32 13 40 1z m-1442 -45 c9 -12
19 -41 23 -62 4 -21 15 -55 24 -74 10 -20 26 -62 35 -95 10 -33 22 -66 27 -72
11 -14 39 -18 37 -5 -1 4 -1 9 0 12 3 6 8 69 15 160 11 140 16 160 42 160 21
0 24 -5 24 -36 0 -38 -32 -216 -55 -305 -8 -30 -15 -67 -15 -82 0 -22 -5 -27
-25 -27 -20 0 -26 7 -36 43 -7 23 -17 48 -22 55 -6 8 -5 12 4 12 9 0 10 3 4 8
-6 4 -18 19 -27 34 -13 20 -14 28 -5 31 8 4 7 6 -3 6 -10 1 -17 12 -18 29 -1
15 -7 29 -12 30 -6 2 -8 8 -4 13 3 5 0 9 -5 9 -6 0 -11 7 -11 16 0 9 -9 27
-20 41 -11 14 -20 38 -20 54 0 15 -5 31 -10 34 -8 5 -7 11 1 21 17 20 35 17
52 -10z m437 7 c0 -30 -17 -48 -32 -36 -7 6 -30 13 -51 15 l-37 4 6 -50 c13
-98 15 -100 70 -106 35 -4 49 -9 49 -20 0 -19 -70 -26 -91 -9 -13 10 -15 9
-11 -12 2 -13 7 -31 10 -39 4 -8 8 -35 9 -59 3 -48 -3 -44 91 -65 53 -12 26
-26 -52 -26 l-79 0 -7 48 c-4 26 -10 58 -12 72 -3 14 -7 49 -9 78 -2 30 -8 78
-13 108 -6 30 -8 61 -5 69 4 8 1 22 -6 30 -11 13 -1 15 79 15 80 0 91 -2 91
-17z m74 3 c43 -18 47 -26 53 -97 7 -79 -4 -152 -22 -145 -11 4 -11 -2 1 -36
17 -48 17 -48 4 -48 -5 0 -18 17 -27 38 l-17 37 -4 -44 c-2 -24 0 -51 4 -60
12 -26 14 -71 4 -71 -6 0 -10 10 -10 23 0 12 -7 54 -16 92 -19 87 -29 325 -14
325 6 0 26 -6 44 -14z m-620 -22 c11 -28 6 -34 -26 -34 -18 0 -50 -3 -71 -6
l-38 -7 3 -66 3 -66 40 -5 c22 -3 53 -2 68 2 35 9 59 0 55 -20 -4 -20 -60 -35
-118 -30 l-46 3 14 -80 c8 -44 17 -83 21 -87 3 -3 33 -2 65 3 65 11 86 7 86
-15 0 -14 -30 -21 -142 -31 -46 -4 -58 -3 -58 9 0 8 -5 16 -10 18 -6 2 -13 32
-16 68 -3 36 -7 85 -9 110 -2 25 -9 65 -14 90 -6 25 -10 64 -11 87 l0 42 53
10 c47 10 82 15 128 20 9 0 20 -6 23 -15z m711 -5 c10 -15 23 -119 14 -114 -7
5 -39 97 -39 114 0 14 17 14 25 0z m107 -52 c-5 -7 -13 -28 -17 -47 -4 -19
-11 -39 -15 -45 -7 -9 -19 -63 -25 -112 -2 -12 5 -59 15 -105 10 -46 16 -85
13 -88 -8 -8 -23 24 -23 51 0 14 -5 30 -10 35 -20 20 -23 126 -5 184 26 84 57
150 67 144 5 -3 5 -11 0 -17z m258 -6 c0 -16 -10 -19 -82 -21 -46 -2 -96 -2
-112 -2 -27 1 -45 15 -46 35 0 4 54 7 120 7 111 0 120 -1 120 -19z m1566 -49
c-25 -25 -30 -6 -10 35 l19 38 3 -29 c2 -17 -3 -35 -12 -44z m1074 21 c20 -5
36 -16 38 -26 4 -18 -13 -24 -23 -8 -3 6 -26 13 -50 17 -30 4 -45 11 -45 21 0
11 7 14 23 10 12 -3 38 -10 57 -14z m-2738 -15 c3 -7 -2 -49 -9 -93 -7 -44
-12 -132 -11 -195 1 -63 -1 -114 -5 -112 -4 1 -12 2 -18 2 -9 0 -10 49 -4 188
4 103 7 195 7 205 -1 20 34 24 40 5z m1274 -81 c-5 -24 -3 -28 10 -23 13 5 14
1 9 -25 -7 -31 -35 -91 -35 -75 0 5 -10 1 -22 -10 -21 -19 -21 -19 -16 4 4 12
3 22 -2 22 -18 0 -16 49 2 64 13 11 17 23 12 41 -4 15 -2 25 5 25 6 0 11 7 11
16 0 14 2 14 16 3 11 -9 14 -22 10 -42z m620 -15 c-6 -17 31 -42 61 -42 7 0
13 -7 13 -16 0 -11 -6 -14 -20 -9 -11 3 -20 2 -20 -4 0 -5 9 -13 20 -16 41
-13 13 -51 -60 -83 -22 -9 -40 -20 -40 -24 0 -5 -7 -8 -16 -8 -10 0 -14 6 -10
15 6 17 -19 21 -29 5 -4 -6 -26 -20 -51 -31 -24 -12 -41 -25 -38 -30 3 -5 -8
-9 -24 -9 -18 0 -32 -6 -36 -15 -4 -11 -13 -14 -30 -9 -13 3 -37 -1 -52 -9
-16 -8 -35 -12 -42 -10 -7 3 -18 0 -25 -6 -13 -10 -26 -7 -90 15 -10 4 -15 12
-12 18 3 6 8 19 11 29 6 17 24 24 24 9 0 -4 30 -6 67 -6 43 2 71 -2 75 -9 5
-8 8 -7 8 4 0 20 134 82 165 77 16 -3 22 -1 18 8 -2 6 0 15 6 19 6 3 11 11 11
16 0 6 -5 7 -11 4 -6 -4 -5 2 3 14 7 12 16 21 20 21 5 0 8 6 8 14 0 8 14 28
30 46 17 18 30 39 30 46 0 12 4 12 20 4 13 -7 19 -18 16 -28z m846 -137 c6
-14 17 -25 23 -25 18 0 36 -77 25 -105 -10 -27 -58 -53 -91 -49 -13 1 -37 3
-54 4 -28 2 -28 3 10 12 22 5 45 11 52 12 7 1 26 15 42 31 25 25 27 33 18 55
-14 33 -77 100 -95 100 -7 0 -10 4 -7 10 9 15 64 -17 77 -45z m-3012 -62 c0
-7 5 -13 10 -13 6 0 10 -4 10 -10 0 -25 -28 -7 -42 28 -30 69 -32 90 -4 47 14
-22 26 -46 26 -52z m484 -94 c-3 -5 -15 -8 -27 -7 -12 0 -31 -2 -42 -6 -11 -4
-5 1 13 10 17 10 32 22 32 27 0 5 7 4 15 -3 8 -7 12 -16 9 -21z m-464 1 c0 -5
16 -12 35 -16 19 -3 35 -11 35 -16 0 -6 -6 -8 -12 -5 -12 4 -30 10 -113 36
-29 9 -29 9 13 10 23 1 42 -3 42 -9z m4538 -304 c7 -4 12 -12 12 -19 0 -8 -3
-8 -12 1 -7 7 -20 12 -29 12 -10 0 -20 4 -24 9 -6 11 35 9 53 -3z m-3465 -19
c-3 -5 0 -13 7 -17 18 -11 4 -42 -17 -38 -10 2 -17 10 -15 18 2 7 -2 16 -9 20
-16 11 -2 29 21 27 10 -1 16 -5 13 -10z m3778 -104 c12 -15 12 -16 -4 -10 -10
4 -16 3 -14 -1 3 -4 1 -17 -4 -29 -11 -31 -47 -30 -82 2 -32 31 -34 45 -7 45
13 0 20 -7 20 -20 0 -13 7 -20 19 -20 22 0 45 25 36 40 -10 17 22 11 36 -7z
m-6167 -329 c41 -6 47 -10 42 -26 -4 -17 -1 -19 20 -14 17 5 26 2 30 -9 5 -13
16 -14 50 -9 28 4 44 2 44 -4 0 -6 -10 -8 -22 -5 -13 3 -21 3 -18 0 3 -3 24
-10 46 -15 30 -7 45 -6 59 4 10 8 23 14 29 14 5 0 1 -7 -10 -15 -18 -14 -18
-14 8 -15 20 0 26 -4 21 -15 -3 -10 0 -15 8 -13 8 2 13 -3 11 -10 -2 -10 8
-13 35 -11 21 1 46 -2 57 -6 11 -5 21 -3 28 6 7 11 11 11 15 1 2 -6 10 -9 16
-6 8 5 8 2 0 -7 -14 -14 -17 -61 -6 -73 4 -4 8 -25 8 -47 1 -23 7 -44 16 -50
11 -6 11 -9 1 -9 -9 0 -11 -7 -7 -20 4 -12 2 -20 -5 -20 -7 0 -10 -6 -7 -14 3
-8 -1 -17 -10 -20 -14 -6 -14 -8 1 -25 15 -16 15 -20 1 -31 -9 -7 -13 -21 -9
-35 3 -13 1 -26 -6 -30 -8 -5 -8 -10 0 -20 19 -23 1 -36 -48 -36 -80 0 -172
-10 -172 -19 0 -5 -3 -15 -6 -24 -4 -11 3 -19 23 -28 15 -6 36 -18 45 -26 12
-10 21 -11 37 -3 25 14 61 14 61 1 0 -5 -7 -10 -16 -10 -9 0 -14 -6 -12 -12 3
-9 29 -14 73 -15 38 -1 76 -5 84 -8 14 -6 13 -8 -3 -21 -23 -16 -14 -18 30 -5
29 8 31 7 26 -12 -4 -17 -2 -19 22 -13 16 4 25 3 22 -2 -3 -6 5 -12 19 -14 38
-8 339 22 346 33 3 6 15 9 25 8 11 -2 28 2 39 8 11 6 37 13 58 17 21 4 44 9
51 12 8 3 20 -2 29 -10 14 -14 16 -13 22 16 7 28 9 29 18 13 9 -18 10 -18 23
0 8 11 21 16 33 12 12 -3 22 1 25 9 3 8 15 14 27 14 16 0 20 -4 15 -17 -6 -14
-2 -13 16 4 24 23 132 63 170 63 13 1 34 7 48 15 14 8 35 14 46 15 12 0 25 7
28 16 4 11 12 13 28 8 13 -4 35 -7 50 -6 15 1 29 -2 32 -7 3 -5 15 -7 26 -4
11 3 20 0 20 -6 0 -10 -38 -15 -87 -11 -18 1 -23 -4 -23 -22 0 -29 -17 -48
-43 -48 -13 0 -17 5 -13 15 8 23 -22 18 -34 -6 -9 -15 -18 -19 -38 -15 -33 7
-63 -8 -37 -18 37 -14 -1 -27 -78 -26 -105 1 -117 0 -117 -17 0 -9 -15 -13
-50 -13 -27 0 -50 -4 -50 -9 0 -5 -8 -11 -17 -15 -10 -3 -24 -9 -31 -12 -7 -3
-11 0 -10 8 2 9 -11 14 -41 16 -34 3 -48 -1 -63 -18 -14 -15 -29 -20 -44 -17
-14 2 -27 0 -30 -5 -3 -5 -21 -6 -41 -2 -34 6 -35 6 -23 -16 16 -29 8 -35 -15
-10 -23 26 -35 26 -28 0 6 -21 -13 -28 -20 -7 -3 9 -7 9 -20 -2 -10 -8 -27
-11 -41 -7 -16 4 -26 1 -29 -8 -4 -10 -23 -14 -64 -14 -40 0 -70 -6 -93 -19
-42 -24 -98 -37 -165 -38 -27 -1 -98 -5 -157 -9 -90 -6 -112 -5 -139 9 -26 14
-36 15 -54 5 -14 -7 -32 -9 -46 -4 -13 4 -48 6 -78 5 -50 -2 -56 0 -85 32 -17
18 -39 37 -49 40 -11 4 -21 16 -24 26 -3 13 -17 20 -45 24 -23 3 -44 11 -48
17 -4 6 -13 10 -20 8 -8 -2 -15 4 -17 13 -3 13 3 17 21 15 14 0 26 -5 26 -10
0 -6 5 -5 12 2 16 16 -4 58 -34 67 -13 4 -31 14 -40 23 -16 13 -20 13 -43 -2
-27 -18 -78 -15 -90 5 -4 5 -14 9 -23 9 -9 0 -30 7 -46 15 -15 8 -35 15 -42
15 -17 0 -19 -20 -1 -21 6 0 -1 -5 -18 -10 -16 -4 -68 -7 -115 -5 -70 2 -90 0
-112 -16 -32 -22 -61 -23 -93 -2 -19 12 -29 14 -38 5 -8 -6 -33 -8 -66 -4 -34
4 -60 2 -76 -7 -16 -8 -43 -11 -80 -7 -49 5 -55 4 -55 -13 0 -10 -6 -22 -12
-27 -12 -7 -122 -24 -161 -24 -9 0 -15 -4 -12 -9 3 -6 -1 -7 -10 -4 -8 4 -21
1 -29 -5 -7 -6 -28 -9 -47 -6 -32 5 -32 5 -9 -6 34 -15 13 -22 -36 -11 l-39 9
30 13 c28 13 28 14 8 17 -12 3 -31 0 -42 -6 -30 -16 -79 -3 -83 23 -2 13 -10
20 -21 20 -17 -2 -17 0 -3 15 20 22 20 30 0 53 -14 14 -14 20 -4 33 7 8 21 15
32 15 10 0 21 6 24 14 3 8 18 16 35 20 16 3 29 11 29 17 0 7 -9 9 -24 5 -34
-8 -48 12 -36 54 5 18 7 37 4 42 -3 5 8 13 25 19 17 6 31 15 31 20 0 6 6 9 12
8 47 -6 49 13 7 64 -36 44 -32 59 7 28 34 -26 47 -27 39 -1 -4 12 -2 20 5 20
18 0 37 -24 32 -40 -3 -8 -1 -12 3 -8 4 4 9 23 12 42 3 31 0 36 -22 42 -24 6
-24 7 -8 19 14 11 19 10 30 -4 11 -14 12 -14 13 7 0 24 1 25 24 16 9 -3 16
-12 16 -20 0 -8 5 -14 11 -14 5 0 8 4 5 9 -9 14 4 41 19 41 13 0 25 -21 25
-43 0 -7 -10 -17 -22 -22 -12 -6 -24 -16 -26 -23 -4 -12 0 -12 19 -1 50 28 95
39 132 33 23 -4 43 -1 52 6 12 10 15 9 15 -8 0 -12 -8 -26 -17 -31 -24 -14 72
-7 110 8 15 6 27 6 27 2 0 -5 -5 -11 -12 -13 -6 -2 -8 -10 -4 -17 6 -9 11 -9
22 0 8 6 14 8 14 3 0 -4 5 -3 12 4 17 17 39 15 32 -3 -4 -8 -12 -15 -19 -15
-22 0 -29 -22 -11 -32 22 -13 20 -38 -4 -38 -13 0 -20 7 -20 18 0 23 -58 46
-76 31 -7 -6 -16 -20 -19 -30 -6 -17 -12 -19 -51 -13 -33 5 -57 2 -87 -11 -66
-27 -71 -30 -84 -56 -14 -26 -28 -26 -55 -2 -25 22 -52 9 -44 -21 5 -20 1 -25
-20 -30 -21 -6 -24 -9 -14 -21 10 -12 9 -16 -6 -22 -11 -4 -25 -13 -32 -20 -7
-7 -25 -13 -38 -13 -14 0 -22 -4 -19 -10 3 -5 26 -10 51 -10 30 0 43 -4 41
-12 -1 -8 10 -14 25 -16 21 -3 27 0 22 11 -3 10 2 18 15 22 12 3 19 11 16 16
-4 5 -1 9 4 9 6 0 11 -4 11 -10 0 -16 66 -12 80 5 8 9 29 15 55 15 41 0 64 18
50 40 -3 5 -1 11 5 15 15 9 12 19 -10 43 l-21 22 32 0 c28 0 31 -3 27 -25 -6
-28 -3 -29 40 -14 25 9 30 16 30 39 -1 32 17 60 38 60 16 0 18 -18 4 -40 -5
-9 -5 -19 2 -27 8 -10 7 -17 -6 -26 -16 -12 -16 -14 -2 -26 21 -17 39 -4 32
24 -4 15 -1 25 8 28 18 7 26 -1 26 -25 0 -27 17 -22 33 12 14 27 14 30 -4 35
-10 4 -24 3 -30 -1 -7 -4 -10 -1 -7 7 6 18 58 20 65 3 2 -6 18 -18 34 -24 18
-8 29 -20 29 -32 0 -16 -5 -18 -36 -12 l-36 7 17 -27 c23 -35 55 -33 88 4 28
31 39 33 192 35 22 0 47 4 55 9 7 5 32 9 53 7 32 -2 38 1 34 14 -6 15 3 19 31
16 8 -1 21 4 31 13 21 19 42 6 39 -24 -3 -21 3 -26 40 -34 24 -5 42 -15 42
-22 0 -8 6 -14 14 -14 9 0 12 7 9 19 -4 16 2 22 28 29 38 10 49 7 49 -13 0 -9
14 -15 38 -17 30 -2 38 -7 40 -25 2 -13 9 -23 15 -23 28 0 86 -22 107 -40 25
-22 45 -24 105 -10 40 9 205 22 260 21 17 -1 41 1 54 5 20 4 22 7 10 15 -7 5
-26 9 -41 9 -29 0 -45 15 -28 25 18 11 10 23 -20 30 -16 4 -32 11 -35 16 -4 5
-17 9 -30 9 -26 0 -41 15 -25 25 14 8 13 65 -1 65 -8 0 -8 4 0 14 9 10 8 15
-3 19 -7 3 -19 1 -25 -4 -6 -5 -9 -6 -6 -2 3 4 -9 13 -27 20 -24 10 -29 16
-20 25 16 16 -13 48 -43 48 -13 0 -26 7 -29 16 -4 11 -13 14 -29 10 -12 -3
-28 -1 -36 4 -12 7 -12 11 2 25 19 18 23 45 7 45 -5 0 -10 9 -10 20 0 11 -7
20 -15 20 -18 0 -20 21 -3 38 9 9 5 12 -17 13 -27 1 -28 2 -7 7 13 4 23 12 22
17 -1 11 -4 11 -75 2 -45 -7 -47 -6 -30 8 22 16 58 18 129 9z m-28 -115 c9
-14 -5 -26 -41 -35 l-30 -7 25 26 c28 29 36 32 46 16z m584 1 c19 -5 13 -7
-22 -6 -27 0 -48 4 -48 9 0 9 36 8 70 -3z m1522 -17 c14 4 22 -1 29 -20 10
-27 34 -27 34 0 0 26 20 25 23 0 2 -13 10 -23 18 -23 8 0 13 6 12 13 -2 7 11
13 32 15 19 2 40 8 47 14 9 7 28 6 63 -2 28 -7 57 -9 65 -6 9 3 15 0 15 -9 0
-8 -7 -15 -16 -15 -9 0 -14 -7 -12 -17 3 -15 12 -17 53 -15 37 2 46 0 35 -8
-11 -7 -8 -9 15 -4 26 4 32 1 47 -26 14 -24 23 -30 37 -25 14 4 23 0 31 -15 6
-11 17 -20 25 -20 8 0 19 -8 24 -18 6 -11 32 -23 70 -31 34 -7 61 -17 61 -21
0 -4 8 -7 17 -6 11 0 19 -7 21 -21 2 -14 8 -20 18 -16 8 3 21 0 29 -7 8 -6 19
-9 25 -5 6 4 18 1 26 -6 8 -7 37 -13 65 -13 32 -1 53 -6 59 -16 8 -13 11 -12
23 4 13 18 15 18 40 1 14 -9 31 -14 36 -11 5 4 11 -8 13 -26 4 -38 33 -51 43
-19 4 14 15 21 31 21 13 0 24 5 24 10 0 13 67 13 75 0 3 -5 -12 -14 -34 -20
-22 -6 -43 -15 -46 -20 -11 -17 6 -51 23 -49 51 5 61 -1 73 -40 14 -46 39 -65
31 -24 -4 23 -2 25 17 20 13 -3 24 1 30 10 6 12 12 13 30 4 20 -11 29 -31 14
-31 -11 0 -33 -51 -27 -61 3 -5 18 -9 34 -9 16 0 36 -8 46 -17 17 -17 16 -18
-15 -21 -24 -3 -35 -10 -42 -29 -8 -22 -13 -24 -45 -19 -44 9 -70 1 -77 -23
-6 -23 -42 -47 -84 -56 -31 -6 -33 -5 -33 19 0 14 -5 26 -10 26 -6 0 -9 -16
-7 -37 5 -46 -25 -93 -59 -93 -13 0 -44 -11 -70 -25 -48 -25 -108 -33 -119
-15 -3 6 -25 10 -48 10 -35 0 -43 4 -44 19 -1 11 4 22 11 24 17 7 9 57 -8 57
-7 0 -21 -6 -32 -14 -16 -13 -17 -18 -6 -36 12 -20 11 -21 -10 -18 -15 2 -21
9 -19 18 3 8 4 29 3 47 -2 30 1 33 40 44 24 6 48 20 56 30 16 23 48 25 56 3 4
-10 13 -13 26 -9 13 4 22 1 26 -9 8 -20 23 -21 30 -1 4 8 -5 24 -21 38 -15 12
-33 39 -40 60 -12 34 -11 37 6 37 11 0 19 5 19 11 0 23 -22 49 -41 49 -15 0
-19 5 -15 15 4 11 -2 15 -22 15 -15 0 -35 9 -45 20 -24 29 -49 26 -41 -4 5
-23 5 -24 -53 -19 -32 2 -62 10 -68 17 -5 7 -27 18 -47 25 -36 12 -52 31 -26
31 9 0 9 3 0 12 -10 10 -17 10 -31 1 -15 -9 -23 -9 -37 2 -11 8 -27 15 -37 15
-10 0 -25 7 -34 16 -9 8 -22 13 -30 10 -8 -3 -22 -2 -31 3 -10 5 -37 10 -62
12 -25 1 -57 8 -71 15 -16 8 -41 11 -63 7 -24 -4 -43 0 -61 11 -14 9 -25 12
-25 7 0 -6 -6 -8 -14 -5 -8 3 -13 11 -10 17 3 9 -11 11 -48 9 l-53 -4 -1 -50
c-1 -61 -22 -89 -48 -63 -18 18 -22 55 -6 55 16 0 12 22 -7 36 -10 7 -26 14
-37 14 -12 0 -16 5 -12 15 7 19 -18 32 -78 39 -26 3 -52 8 -57 11 -5 4 -13 -5
-19 -19 -5 -14 -14 -26 -20 -26 -13 0 -13 27 0 35 15 10 12 35 -5 35 -8 0 -15
5 -15 10 0 6 -11 10 -24 10 -13 0 -26 7 -29 14 -3 8 -22 18 -41 22 -38 7 -43
13 -24 32 7 7 8 12 2 12 -6 0 -16 -6 -23 -12 -10 -11 -15 -10 -25 5 -19 24
-27 21 -20 -8 6 -23 3 -25 -26 -25 -37 0 -69 24 -44 34 8 3 12 10 9 16 -3 5 2
10 11 10 10 0 25 7 35 16 14 12 41 16 124 16 58 1 108 -2 111 -5 10 -9 34 4
34 19 0 8 3 14 8 15 4 0 49 2 101 4 51 2 96 6 99 9 2 3 13 1 24 -5 11 -6 29
-9 40 -6z m-640 -83 c-15 -15 -29 -18 -51 -14 -20 4 -31 2 -31 -5 0 -6 -10
-11 -22 -11 -18 0 -20 2 -8 10 8 5 11 12 7 16 -4 4 -16 -1 -27 -11 -23 -21
-27 -11 -4 12 10 11 27 14 53 10 21 -2 45 -1 52 4 8 5 23 9 33 9 19 0 19 -1
-2 -20z m-1772 -184 l32 -13 -28 -9 c-45 -13 -74 -12 -74 2 0 10 22 31 36 34
1 0 16 -6 34 -14z m3790 -85 c0 -10 -6 -26 -14 -36 -13 -18 -14 -17 -21 13 -3
17 -4 36 0 41 9 15 35 1 35 -18z m1370 -19 c0 -10 -22 -32 -32 -32 -13 0 -9
28 5 33 19 8 27 8 27 -1z m-6250 -57 c0 -2 -8 -9 -19 -14 -13 -7 -24 -6 -37 4
-18 13 -16 14 19 15 20 0 37 -2 37 -5z m6315 -35 c3 -5 0 -19 -9 -31 l-14 -21
-11 20 c-6 12 -11 25 -11 31 0 14 37 14 45 1z m-1999 -415 c8 -17 17 -20 66
-17 62 4 80 -1 72 -22 -6 -15 -52 -13 -161 5 -71 13 -100 4 -59 -18 40 -21 22
-36 -35 -29 -44 6 -49 5 -49 -12 0 -15 -12 -23 -47 -32 -27 -7 -42 -15 -35
-17 6 -3 10 -9 6 -14 -8 -14 -24 -11 -24 6 0 11 -11 15 -36 15 -29 0 -35 -3
-30 -16 7 -19 -20 -61 -44 -69 -11 -3 -32 1 -48 9 -25 13 -34 13 -68 1 -33
-12 -39 -21 -11 -16 4 0 7 -3 7 -9 0 -12 -38 -22 -71 -19 -48 4 -59 0 -59 -24
0 -13 -3 -26 -6 -30 -10 -9 -34 4 -34 19 0 24 -28 15 -34 -11 -6 -22 -12 -25
-51 -25 -24 0 -47 6 -51 12 -6 9 -10 5 -14 -12 -4 -15 -13 -24 -21 -21 -79 19
-308 -2 -317 -29 -5 -14 -45 -13 -60 2 -6 6 -15 8 -19 4 -4 -4 -1 -11 7 -16
10 -6 -5 -10 -45 -12 -35 -2 -60 -8 -63 -15 -2 -8 5 -13 17 -13 12 0 21 -3 21
-8 0 -4 -43 -8 -95 -8 -71 -1 -95 2 -95 11 0 8 6 16 13 18 7 4 8 6 1 6 -6 1
-17 -5 -23 -13 -9 -11 -26 -13 -67 -9 -46 5 -54 3 -54 -11 0 -9 -4 -16 -10
-16 -5 0 -10 4 -10 8 0 13 -146 8 -162 -5 -7 -6 -31 -13 -53 -15 -43 -3 -62
-32 -28 -41 15 -4 14 -5 -4 -6 -12 0 -25 -6 -29 -12 -3 -6 -19 -9 -35 -5 -41
8 -88 -12 -95 -40 -4 -16 -13 -24 -29 -24 -12 0 -30 -9 -39 -19 -17 -18 -17
-20 1 -30 16 -9 16 -10 1 -11 -28 0 -47 11 -41 26 9 24 -35 16 -73 -12 -27
-21 -33 -31 -28 -50 5 -19 2 -24 -14 -24 -11 0 -35 -6 -53 -14 -30 -12 -34
-12 -48 5 -14 17 -21 18 -53 9 -21 -6 -38 -15 -38 -21 0 -5 -9 -19 -19 -30
-16 -17 -23 -19 -40 -9 -12 6 -26 8 -31 5 -6 -3 -16 -3 -22 2 -21 13 -87 13
-82 0 5 -15 -44 -39 -52 -26 -3 5 2 9 12 9 13 0 14 3 4 15 -7 8 -19 15 -26 15
-8 0 -22 5 -33 11 -13 9 -23 9 -37 1 -19 -11 -18 -11 1 -13 11 -1 26 -1 34 0
8 2 10 -2 5 -10 -4 -7 -3 -10 4 -5 6 3 13 2 16 -3 11 -18 -13 -22 -46 -8 -18
8 -45 17 -60 21 -24 5 -28 3 -28 -13 0 -15 -5 -19 -16 -14 -12 4 -15 2 -12 -8
3 -8 10 -14 16 -14 5 0 14 -4 18 -8 10 -10 -36 -5 -53 6 -17 11 5 60 24 53 7
-3 12 0 10 6 -1 6 22 18 52 27 38 12 56 23 62 39 5 12 16 22 24 22 9 0 27 12
40 28 23 28 107 75 133 75 8 0 17 9 20 19 4 15 15 18 64 18 36 0 57 4 53 10
-3 6 1 7 10 4 8 -4 22 -1 30 6 7 6 29 14 47 17 18 3 36 10 39 15 7 11 123 34
227 44 34 4 62 10 62 14 0 4 16 10 35 12 20 2 35 0 35 -7 0 -5 4 -4 9 3 4 8
14 12 22 11 15 -2 62 8 94 21 29 11 199 50 220 50 23 0 185 38 210 50 11 5 45
12 75 15 30 4 87 15 125 25 39 10 102 24 142 31 39 7 69 17 67 21 -3 4 11 8
30 8 19 0 38 5 41 10 3 6 15 10 25 10 10 0 20 6 22 13 3 8 29 12 77 13 39 1
74 4 78 8 3 3 1 6 -5 6 -7 0 -12 4 -12 9 0 13 57 34 74 28 8 -3 42 3 76 14 34
10 73 19 86 19 17 0 24 6 24 19 0 22 26 27 185 37 55 3 101 7 103 9 2 1 38 2
81 1 68 -1 79 -3 87 -21z m223 4 c28 -10 42 -27 24 -30 -57 -9 -72 -7 -77 7
-6 17 0 34 13 34 4 0 22 -5 40 -11z m1096 -118 c-9 -29 -35 -27 -35 3 0 25 19
39 33 26 5 -5 6 -17 2 -29z m-88 -24 c2 -32 -1 -38 -23 -43 -32 -8 -44 4 -21
20 9 7 17 25 17 40 0 42 25 26 27 -17z m-59 -69 c4 -31 0 -33 -29 -18 -28 15
-25 52 4 48 16 -2 23 -11 25 -30z m70 -168 c6 0 12 -4 12 -10 0 -5 -7 -10 -15
-10 -9 0 -15 -9 -15 -25 0 -25 10 -29 90 -37 17 -2 26 -10 28 -24 4 -27 -41
-58 -75 -51 -16 3 -27 -1 -30 -10 -8 -20 14 -33 56 -33 31 0 120 -46 121 -62
0 -3 -13 -9 -30 -13 -16 -4 -32 -10 -34 -14 -3 -4 4 -26 15 -50 27 -61 25 -91
-5 -91 -13 0 -26 -4 -28 -8 -1 -4 -18 -18 -36 -31 -33 -23 -33 -24 -31 -97 2
-81 -15 -116 -50 -107 -23 6 -34 -20 -17 -42 10 -14 9 -24 -6 -53 -10 -20 -18
-44 -18 -54 0 -15 -9 -18 -57 -17 -32 0 -72 6 -90 12 -23 7 -35 8 -45 0 -20
-17 -64 -4 -77 23 -9 20 -18 24 -53 24 -39 0 -40 1 -22 15 21 16 17 18 -41 19
-22 1 -40 6 -40 11 0 6 -4 16 -8 23 -14 21 4 34 42 29 27 -3 45 1 72 19 29 20
41 23 62 15 37 -14 50 5 35 52 -10 33 -9 40 9 60 12 12 29 48 39 79 15 46 22
57 37 52 19 -6 21 0 7 25 -7 14 -5 23 10 36 25 23 25 35 1 35 -27 0 -34 15
-27 56 5 26 12 34 28 34 17 0 19 3 10 12 -7 7 -12 19 -12 28 0 19 35 41 54 34
13 -5 14 0 6 27 -11 38 -10 41 38 55 34 9 37 13 34 43 -2 30 0 33 20 27 13 -3
29 -6 36 -6z m-267 -253 c-11 -11 -25 28 -15 45 5 7 10 3 16 -12 5 -14 5 -27
-1 -33z m-73 -362 c-3 -9 -58 -16 -58 -8 0 6 44 22 53 20 5 -2 7 -7 5 -12z
m3026 -446 c5 -34 3 -56 -5 -66 -21 -24 -33 10 -19 53 7 19 9 41 6 49 -3 8 -2
15 3 15 5 0 11 -23 15 -51z m39 -36 c-3 -32 -10 -59 -15 -61 -17 -7 -7 -24 12
-19 11 3 20 1 20 -3 0 -16 -32 -40 -53 -40 -21 -1 -21 -1 -3 -15 10 -8 15 -19
11 -25 -4 -7 -1 -16 6 -21 7 -4 10 -11 7 -15 -4 -3 -15 1 -24 11 -9 9 -25 14
-35 12 -11 -3 -19 -1 -19 4 0 5 7 9 15 9 8 0 15 7 15 15 0 11 -11 15 -39 15
-34 0 -38 3 -34 20 4 15 14 20 37 20 27 0 35 7 59 50 16 28 25 55 22 60 -8 14
1 40 14 40 6 0 7 -23 4 -57z m-49 -229 c9 -3 16 -15 16 -25 0 -21 -16 -26 -23
-6 -2 6 -7 -7 -11 -30 -8 -43 -24 -57 -53 -46 -14 5 -13 1 5 -16 26 -26 28
-33 6 -24 -10 4 -15 1 -14 -8 4 -29 0 -41 -14 -36 -7 3 -19 0 -25 -6 -9 -9
-14 -8 -21 3 -14 23 -12 30 9 30 20 0 37 32 26 50 -3 5 -2 10 3 10 5 0 12 9
15 20 3 11 13 20 22 20 9 0 13 5 10 11 -4 5 -4 21 -1 35 6 24 21 29 50 18z
m-241 -221 c3 -18 0 -34 -10 -45 -9 -10 -12 -18 -7 -19 5 -1 16 -2 24 -3 8 -2
23 -3 33 -4 13 -2 17 -11 17 -37 0 -19 -5 -35 -11 -35 -6 0 -9 9 -6 20 3 11 1
23 -4 26 -5 3 -9 -2 -9 -10 0 -9 -7 -16 -15 -16 -8 0 -15 5 -15 11 0 6 -7 9
-15 5 -8 -3 -15 -2 -16 2 0 4 -1 25 -3 47 -4 71 26 117 37 58z m142 -23 c-3
-5 -13 -10 -21 -10 -9 0 -24 -10 -34 -22 l-17 -22 -7 22 c-11 32 0 42 45 42
24 0 38 -4 34 -10z m-66 -245 c1 -73 -6 -94 -32 -87 -18 4 -20 2 -9 -9 17 -19
15 -36 -7 -42 -10 -2 -24 -18 -32 -35 -14 -31 -14 -31 -26 -9 -7 12 -12 32
-13 45 0 14 -6 22 -17 23 -14 0 -13 2 4 9 28 11 43 40 37 71 -2 13 -2 18 2 11
7 -15 24 -6 24 13 0 7 -12 15 -27 17 -20 2 -29 9 -31 26 -2 12 1 22 6 22 5 0
13 -10 16 -22 6 -22 7 -22 20 -5 7 9 18 17 24 17 6 0 19 15 29 33 l17 32 7
-30 c4 -16 7 -52 8 -80z"/>
<path d="M3523 6157 c3 -9 3 -17 -1 -17 -8 0 2 -117 9 -125 2 -2 13 -5 24 -7
18 -3 20 2 19 56 -1 50 -5 62 -30 84 -19 18 -26 21 -21 9z"/>
<path d="M1115 4606 l-30 -13 28 -7 c35 -8 65 5 45 21 -9 8 -21 8 -43 -1z"/>
<path d="M826 4581 c-9 -15 23 -36 36 -23 5 5 7 15 4 21 -9 13 -33 14 -40 2z"/>
<path d="M813 4455 c11 -23 37 -35 37 -17 0 10 -33 42 -42 42 -4 0 -1 -11 5
-25z"/>
<path d="M836 4269 c4 -7 -1 -18 -10 -25 -12 -8 -14 -14 -5 -19 6 -4 14 -3 18
2 3 5 14 14 24 20 16 8 16 10 -8 21 -20 9 -24 9 -19 1z"/>
<path d="M4091 4651 c-21 -13 4 -41 35 -41 30 0 31 16 3 25 -17 6 -19 9 -8 16
12 7 11 9 -1 9 -8 0 -21 -4 -29 -9z"/>
<path d="M5397 4189 c-10 -18 -15 -34 -12 -37 8 -8 54 51 48 60 -8 14 -18 8
-36 -23z"/>
<path d="M5517 4206 c-4 -9 2 -17 14 -21 27 -9 35 0 19 20 -16 19 -26 19 -33
1z"/>
<path d="M3067 3360 c3 -11 9 -20 13 -20 5 0 15 -3 24 -6 9 -3 16 -1 16 5 0 6
-7 11 -15 11 -8 0 -15 7 -15 15 0 8 -6 15 -14 15 -9 0 -12 -7 -9 -20z"/>
<path d="M2841 3352 c-8 -15 -9 -28 -2 -39 8 -15 10 -14 16 9 10 39 1 58 -14
30z"/>
<path d="M6316 3322 c-2 -4 -1 -23 3 -41 8 -40 31 -54 31 -19 0 50 -19 84 -34
60z"/>
<path d="M6390 3230 c-12 -8 -8 -10 15 -12 51 -3 110 3 120 13 12 12 -116 12
-135 -1z"/>
<path d="M6424 3165 c-12 -8 -24 -12 -26 -9 -3 3 -8 -1 -11 -8 -3 -10 7 -13
42 -13 58 0 81 17 45 34 -30 14 -25 14 -50 -4z"/>
<path d="M6230 2975 c-9 -10 -6 -15 10 -20 29 -9 44 7 21 22 -15 10 -22 9 -31
-2z"/>
<path d="M6427 2924 c-3 -3 -3 -12 0 -19 4 -11 10 -11 29 -3 13 6 24 15 24 20
0 9 -44 11 -53 2z"/>
<path d="M7997 5313 c-38 -4 -39 -5 -33 -39 4 -21 3 -34 -4 -34 -5 0 -10 7
-10 16 0 9 -7 14 -17 12 -10 -2 -18 -12 -18 -22 0 -14 12 -22 50 -31 27 -7 51
-18 53 -24 2 -6 8 -11 14 -11 6 0 8 6 5 13 -3 8 -1 20 3 27 5 7 4 25 -1 38 -6
17 -6 29 1 36 12 12 13 27 3 24 -5 -1 -25 -3 -46 -5z"/>
<path d="M8072 5283 c1 -16 0 -33 -3 -39 -2 -7 -1 -12 4 -13 4 -1 6 1 5 3 -2
2 5 12 14 22 14 16 14 22 4 37 -19 24 -25 21 -24 -10z"/>
<path d="M7885 5270 c-4 -6 -15 -8 -25 -5 -11 3 -20 0 -24 -10 -3 -8 0 -15 7
-15 18 0 67 24 67 33 0 11 -18 9 -25 -3z"/>
<path d="M8810 5011 c0 -16 43 -41 70 -40 24 1 23 1 -7 15 -18 8 -33 19 -33
24 0 6 -7 10 -15 10 -8 0 -15 -4 -15 -9z"/>
<path d="M8059 4853 c-1 -5 -1 -12 0 -16 1 -5 -13 -6 -31 -2 -31 7 -32 6 -13
-9 24 -18 27 -19 59 -6 17 6 24 14 20 25 -6 15 -33 21 -35 8z"/>
<path d="M8138 4804 c23 -16 31 -64 11 -64 -8 0 -8 -5 1 -15 7 -9 10 -27 7
-44 -5 -25 -4 -28 17 -24 17 4 25 -1 29 -16 7 -27 27 -27 34 -1 3 12 14 20 27
20 19 -1 19 -2 4 -11 -26 -14 -22 -29 7 -29 14 0 25 4 25 10 0 5 11 12 25 16
21 5 24 11 19 28 -6 17 -5 19 8 9 17 -15 105 -4 101 12 -2 6 -6 10 -10 10 -5
1 -27 11 -50 23 -46 24 -73 28 -73 11 0 -7 -11 0 -25 13 -14 14 -55 35 -93 47
-80 25 -94 26 -64 5z"/>
<path d="M8483 4758 c2 -7 12 -13 22 -13 10 0 20 6 23 13 2 7 -6 12 -23 12
-17 0 -25 -5 -22 -12z"/>
<path d="M8363 4645 c-8 -22 2 -28 32 -21 22 6 25 9 15 21 -16 19 -39 19 -47
0z"/>
<path d="M8866 4648 c-11 -6 -35 -12 -54 -14 -39 -3 -70 -28 -75 -61 -3 -22
-46 -63 -66 -63 -14 0 -14 -17 -1 -25 6 -3 13 1 16 9 3 9 12 16 20 16 8 0 14
4 14 9 0 14 44 21 52 8 6 -9 8 -9 8 1 0 6 7 12 16 12 8 0 13 4 9 10 -3 5 -13
6 -22 3 -11 -4 -14 -2 -11 8 3 8 13 14 24 15 35 2 39 6 14 15 -22 8 -22 8 7 4
26 -3 35 1 58 30 27 36 24 43 -9 23z"/>
<path d="M8721 4501 c-14 -25 -14 -31 0 -31 5 0 7 5 3 12 -5 8 -2 9 9 5 22 -8
31 8 13 23 -12 9 -17 7 -25 -9z"/>
<path d="M7552 4434 c9 -9 24 -14 32 -11 27 11 17 27 -16 27 -30 0 -31 -1 -16
-16z"/>
<path d="M6957 4238 c-12 -9 -14 -17 -7 -28 8 -12 10 -12 11 5 0 11 3 14 6 7
6 -15 23 -6 23 14 0 17 -11 18 -33 2z"/>
<path d="M9330 3710 c0 -11 -4 -20 -10 -20 -18 0 -52 -41 -46 -56 3 -8 -1 -17
-9 -20 -8 -4 -15 -12 -15 -20 0 -8 -4 -14 -10 -14 -14 0 -13 23 2 38 6 6 9 15
5 18 -4 4 -18 -5 -31 -19 -14 -15 -32 -27 -41 -27 -8 0 -15 -6 -15 -14 0 -16
-37 -42 -74 -52 -14 -3 -26 -10 -26 -14 0 -11 -89 -45 -96 -37 -4 3 -15 -3
-27 -14 -11 -10 -29 -19 -39 -19 -11 0 -18 -7 -18 -20 0 -27 -10 -25 -45 11
-16 17 -31 26 -33 20 -2 -5 -10 -7 -18 -4 -9 3 -14 -2 -14 -15 0 -15 -5 -19
-19 -15 -12 3 -30 -4 -46 -19 -24 -23 -25 -27 -13 -54 7 -16 15 -31 18 -34 18
-17 50 -65 50 -76 0 -8 -7 -14 -15 -14 -8 0 -15 -4 -15 -9 0 -5 7 -11 15 -15
8 -3 15 -14 15 -25 0 -19 67 -81 88 -81 5 0 15 -7 22 -16 25 -29 45 -33 80
-16 25 12 35 13 38 4 2 -7 11 -12 19 -12 13 0 13 3 3 15 -11 13 -8 15 14 15
14 0 35 -6 47 -12 17 -11 22 -10 33 4 9 12 16 14 23 7 16 -16 119 -17 116 -1
-2 7 8 12 23 12 22 0 25 -2 14 -15 -11 -13 -7 -15 30 -15 37 0 41 2 30 15 -10
13 -9 15 8 15 12 0 24 -4 27 -10 16 -26 25 -3 25 64 0 71 -2 75 -31 100 -17
14 -39 26 -49 26 -9 0 -32 3 -50 7 -26 5 -31 3 -25 -7 6 -10 4 -11 -11 -5 -10
4 -30 8 -44 10 -14 1 -35 5 -47 9 -12 4 -24 2 -28 -4 -10 -16 -35 -12 -35 6 0
12 -7 15 -25 12 -28 -6 -69 19 -47 28 14 7 16 34 2 34 -5 0 -10 4 -10 9 0 4
12 6 28 3 22 -4 25 -2 15 9 -21 21 -15 31 15 25 23 -5 30 -1 44 24 9 16 24 30
33 30 21 0 75 40 75 56 0 21 45 63 86 80 51 21 68 44 45 60 -15 12 -15 13 2
19 21 9 23 55 2 55 -8 0 -15 -9 -15 -20z"/>
</g>
</svg>
