<?xml version="1.0" standalone="no"?>
<!DOCTYPE svg PUBLIC "-//W3C//DTD SVG 20010904//EN"
 "http://www.w3.org/TR/2001/REC-SVG-20010904/DTD/svg10.dtd">
<svg version="1.0" xmlns="http://www.w3.org/2000/svg"
 width="864.000000pt" height="864.000000pt" viewBox="0 0 864.000000 864.000000"
 preserveAspectRatio="xMidYMid meet">
<metadata>
Created by potrace 1.13, written by Peter Selinger 2001-2015
</metadata>
<g transform="translate(0.000000,864.000000) scale(0.080000,-0.080000)"
fill="#000000" stroke="none">
<path d="M0 5400 l0 -5400 5400 0 5400 0 0 5400 0 5400 -5400 0 -5400 0 0
-5400z m5179 4685 c45 -9 97 -25 114 -36 l32 -20 -30 6 c-16 4 -43 11 -60 15
-44 13 -185 40 -225 43 -19 2 -7 5 26 5 34 1 99 -5 143 -13z m-58 -81 c155
-23 227 -54 322 -137 30 -27 31 -29 14 -42 -11 -7 -24 -12 -30 -10 -7 2 -47 6
-89 10 -43 3 -83 7 -90 10 -27 9 -129 16 -329 20 -229 6 -351 -8 -400 -44 -25
-19 -29 -19 -58 -5 -17 9 -31 19 -31 23 0 12 72 86 105 108 110 73 358 101
586 67z m1134 -24 c-4 -6 -24 -19 -45 -30 -21 -11 -44 -28 -50 -37 -11 -17
-11 -17 -6 0 3 10 6 22 6 25 0 4 15 13 33 20 17 7 39 17 47 22 20 12 22 12 15
0z m-595 -20 c0 -5 -4 -10 -10 -10 -5 0 -10 -14 -10 -30 0 -33 -24 -50 -43
-31 -8 8 -7 11 6 11 12 0 17 8 17 29 0 26 9 38 33 40 4 1 7 -3 7 -9z m1005
-30 c14 -6 4 -9 -37 -9 -31 -1 -60 4 -63 9 -8 12 71 12 100 0z m-557 -36 c-5
-20 -7 -42 -4 -50 3 -8 1 -14 -4 -14 -11 0 -14 83 -3 93 16 16 21 4 11 -29z
m108 -24 c-20 -23 -34 -45 -31 -50 9 -14 -7 -12 -29 5 -14 11 -17 21 -11 42 6
24 8 25 16 10 13 -23 21 -22 53 8 42 38 43 30 2 -15z m100 -30 c7 -7 42 -7
110 1 99 11 198 7 308 -12 72 -13 108 -34 104 -63 -3 -18 -9 -21 -43 -19 -70
4 -336 6 -455 4 -63 -2 -126 2 -140 7 -23 10 -21 11 18 11 36 1 42 4 42 23 0
12 8 29 18 39 20 21 25 22 38 9z m779 -100 c61 -44 115 -104 103 -115 -2 -2
-31 21 -63 53 -33 31 -76 69 -95 84 -62 48 -17 30 55 -22z m175 -242 c0 -5 -4
-8 -8 -8 -8 0 -32 58 -32 76 1 10 39 -56 40 -68z m-2378 -559 c3 -19 13 -70
21 -114 8 -44 28 -116 45 -160 17 -44 45 -118 62 -165 18 -46 47 -115 66 -152
38 -76 40 -94 18 -157 -23 -67 0 -96 41 -51 10 11 24 20 30 20 7 0 30 -30 51
-67 53 -93 157 -196 231 -230 46 -22 73 -27 134 -28 75 0 77 0 154 53 43 28
86 52 96 52 17 0 50 -39 102 -120 24 -37 59 -47 65 -18 2 9 -15 40 -37 70 -50
65 -54 93 -13 77 15 -5 43 -22 62 -38 60 -46 122 -78 200 -101 41 -12 80 -26
86 -31 7 -5 17 -29 22 -52 13 -49 69 -159 117 -226 17 -25 35 -54 38 -63 4
-11 17 -18 32 -18 38 0 75 80 75 161 0 84 37 170 99 227 25 23 56 45 69 49 42
10 133 -5 187 -32 129 -62 228 -248 275 -513 22 -123 -23 -208 -167 -316 -106
-79 -157 -105 -230 -114 -60 -8 -58 -6 -96 -93 -25 -57 -90 -139 -110 -139 -6
0 -24 12 -39 27 -23 22 -36 26 -75 24 -27 -1 -58 -9 -71 -17 -19 -12 -30 -13
-57 -4 -28 9 -41 8 -70 -6 -42 -20 -60 -43 -112 -149 -22 -44 -63 -116 -91
-160 -129 -201 -199 -360 -208 -473 -8 -96 -19 -122 -66 -167 -81 -77 -282
-155 -395 -155 -74 0 -210 49 -301 108 -31 20 -68 43 -81 50 -76 40 -320 275
-400 386 -42 58 -149 230 -187 300 -72 135 -126 349 -199 781 -23 142 -29 297
-15 415 7 58 12 138 11 178 -1 55 3 83 18 110 10 20 40 80 65 132 60 121 97
174 122 178 15 2 39 -17 83 -64 78 -83 101 -120 101 -161 0 -18 11 -67 25
-110 33 -105 55 -201 55 -240 0 -26 -4 -33 -19 -33 -11 0 -32 -11 -47 -24 -26
-21 -28 -30 -32 -112 -4 -82 5 -139 33 -231 5 -17 3 -25 -11 -30 -42 -16 -105
-66 -121 -96 -13 -24 -17 -55 -16 -125 l1 -93 80 -167 c44 -92 94 -196 111
-232 63 -131 172 -267 205 -254 9 3 16 10 16 15 0 5 -26 40 -57 78 -72 85
-200 296 -252 416 -60 135 -77 273 -42 331 10 17 51 52 90 77 39 26 77 57 85
70 44 70 44 310 0 525 -14 68 -23 126 -20 129 3 3 17 -2 31 -11 24 -16 45 -14
45 2 0 4 -26 34 -58 67 -59 61 -68 82 -93 200 -7 33 -20 71 -28 85 -13 19 -16
54 -16 160 0 121 3 145 29 225 34 108 83 208 143 292 66 92 93 103 105 42z
m3760 -1314 c51 -65 225 -108 271 -67 19 17 19 16 13 -43 -3 -33 -11 -145 -16
-250 -20 -355 -37 -417 -161 -583 -74 -99 -185 -211 -284 -286 -109 -84 -162
-133 -226 -209 -40 -47 -49 -65 -49 -96 0 -27 -7 -43 -25 -59 -14 -12 -25 -27
-25 -33 0 -5 -4 -8 -9 -5 -4 3 -11 36 -14 73 -8 86 -49 253 -88 354 -74 193
-275 412 -463 505 -62 31 -66 35 -32 29 21 -3 72 -27 114 -53 69 -43 106 -73
207 -169 28 -27 42 -33 79 -33 25 0 47 4 50 9 3 5 22 12 42 16 20 3 47 13 60
22 13 8 29 13 36 11 18 -6 -34 -38 -95 -58 -37 -12 -53 -23 -55 -37 -8 -52 56
-50 168 7 55 28 163 129 219 205 100 138 204 409 221 582 10 100 28 193 37
193 3 0 14 -11 25 -25z m-132 -151 c-9 -90 -22 -145 -56 -245 -43 -127 -104
-253 -112 -231 -2 6 16 60 39 119 23 59 56 146 74 193 21 55 37 122 45 188 7
56 15 100 18 98 2 -3 -1 -58 -8 -122z m-1274 -408 c-3 -13 -9 -31 -12 -40 -5
-12 0 -16 21 -16 24 0 26 -2 20 -30 -9 -41 7 -58 63 -65 68 -9 110 -24 159
-55 26 -17 52 -26 63 -23 31 8 24 -9 -16 -41 -70 -55 -95 -160 -70 -288 18
-95 35 -128 96 -189 89 -89 261 -117 374 -61 39 20 59 26 65 18 16 -20 51
-197 51 -259 0 -34 7 -102 15 -152 27 -165 15 -419 -30 -630 -49 -230 -44
-300 33 -410 48 -68 211 -254 234 -266 10 -5 18 -18 18 -28 0 -10 15 -30 34
-45 44 -33 74 -115 57 -153 l-11 -25 -35 26 c-18 14 -37 26 -40 26 -4 0 -16
11 -27 25 -27 35 -72 33 -132 -5 -26 -17 -63 -32 -82 -33 -33 -2 -36 0 -58 54
-31 77 -58 112 -134 175 -80 66 -217 135 -335 169 -96 28 -202 77 -287 135
-61 42 -180 163 -228 232 -25 36 -112 247 -112 271 0 4 -9 31 -21 62 -14 39
-26 55 -38 55 -23 0 -45 -25 -36 -41 4 -6 16 -41 25 -78 10 -36 27 -90 39
-120 24 -64 19 -80 -42 -115 l-43 -26 -119 60 c-116 59 -120 60 -202 60 l-83
0 -1 118 c-1 64 0 124 1 132 5 37 66 103 144 155 115 78 192 192 215 322 12
66 9 86 -22 120 -19 22 -19 24 -4 60 53 124 48 242 -11 268 -19 8 -22 17 -22
68 0 39 -7 71 -21 98 -22 44 -21 45 28 95 12 12 35 49 53 83 17 34 36 64 43
66 7 2 37 11 67 19 77 22 192 93 280 175 41 39 77 70 79 71 2 0 0 -11 -3 -24z
m-4066 -95 c-23 -38 -47 -74 -53 -79 -7 -5 -52 -17 -102 -26 -70 -14 -115 -31
-202 -76 -96 -50 -110 -55 -97 -35 9 14 20 25 24 25 4 0 23 11 43 24 37 25
202 82 269 92 32 6 47 17 96 79 31 40 59 72 60 70 2 -2 -15 -35 -38 -74z m320
-41 c16 -9 18 -14 8 -35 -16 -34 4 -55 53 -55 106 0 285 -116 330 -215 10 -22
21 -30 39 -30 33 0 38 41 11 86 -27 44 -27 46 9 41 21 -3 30 -10 30 -23 0 -31
26 -33 83 -9 44 19 63 22 129 17 71 -5 78 -3 91 16 14 21 15 21 28 -23 23 -80
117 -327 148 -387 49 -98 149 -242 240 -345 47 -54 89 -111 93 -126 40 -157
47 -193 48 -229 0 -41 -1 -43 -30 -43 -23 0 -41 -12 -82 -55 -56 -59 -73 -66
-83 -35 -25 80 -167 78 -220 -3 -13 -21 -23 -24 -69 -24 -51 0 -54 1 -60 27
-6 31 -32 46 -52 29 -7 -6 -20 -34 -30 -62 -33 -103 -159 -307 -189 -307 -5 0
-17 13 -27 29 -23 41 -72 64 -140 65 l-58 1 6 55 c3 30 8 61 10 68 2 7 -1 22
-6 33 -13 24 -87 26 -150 4 -64 -23 -66 -19 -16 36 51 57 53 61 30 83 -23 23
-28 21 -76 -30 -32 -35 -47 -44 -64 -40 -49 13 -72 -24 -38 -59 9 -9 13 -19 9
-23 -11 -11 -92 -6 -136 8 -59 20 -99 -9 -63 -44 19 -19 20 -18 -25 -40 -43
-21 -67 -13 -74 23 -8 36 -35 48 -58 24 -17 -17 -17 -20 1 -62 15 -33 17 -42
6 -38 -8 3 -30 9 -50 12 -19 4 -40 13 -47 21 -14 17 -41 18 -57 2 -8 -8 -16
-6 -30 12 -12 15 -25 21 -36 17 -26 -10 -30 -36 -12 -74 18 -38 15 -47 -21
-58 -18 -5 -23 -2 -23 12 0 27 -20 43 -53 43 -45 0 -143 28 -214 62 -171 81
-247 240 -262 552 -5 105 -9 131 -23 139 -12 8 -21 7 -32 -2 -31 -26 -13 -299
28 -434 21 -65 71 -167 98 -197 13 -14 45 -43 71 -64 26 -21 46 -40 44 -42 -1
-2 -25 3 -52 11 -30 10 -91 15 -166 15 l-118 0 6 35 c5 33 4 35 -40 54 -110
47 -265 175 -314 258 -26 44 -26 46 -8 59 10 8 23 14 27 14 15 0 85 118 92
155 4 19 11 35 16 35 10 0 62 -42 102 -82 40 -41 78 -17 78 48 0 25 1 26 13
10 21 -28 50 -15 75 34 23 45 26 101 8 143 -7 15 -2 17 38 17 52 0 109 25 142
62 60 66 57 191 -5 233 -24 16 -51 52 -51 70 0 2 12 5 27 7 21 2 29 10 37 36
14 50 29 39 21 -16 -5 -38 -3 -51 10 -62 24 -20 49 -1 56 41 12 74 65 136 202
241 166 126 393 194 420 125 7 -19 90 -47 139 -47 81 0 155 53 170 121 5 24
10 54 10 67 0 25 2 26 28 12z m3036 -302 c11 -18 15 -131 4 -153 -5 -11 -21
-51 -35 -90 -43 -115 -87 -215 -97 -222 -18 -10 -128 -166 -128 -180 0 -27 20
-10 95 81 81 98 112 157 166 319 52 155 89 205 105 141 9 -36 -2 -143 -22
-212 -18 -64 -93 -217 -136 -276 -26 -36 -29 -56 -7 -56 5 0 13 8 16 18 4 9
30 53 58 97 75 116 109 176 124 213 17 40 27 41 36 1 12 -55 -5 -140 -43 -218
-36 -71 -162 -220 -288 -338 -44 -41 -57 -73 -29 -73 8 0 15 4 15 8 0 12 78
92 135 137 61 48 118 107 154 160 39 58 58 57 63 -2 9 -90 -71 -204 -243 -349
-87 -74 -81 -58 -99 -241 -16 -170 -25 -183 -117 -183 -31 0 -157 -42 -237
-80 -101 -47 -112 -47 -125 -8 -45 140 -33 510 21 613 13 26 23 72 29 130 12
133 25 167 148 380 29 50 75 137 103 195 28 58 64 124 80 148 49 72 88 50 88
-50 0 -45 -6 -65 -37 -114 -20 -32 -60 -108 -90 -168 -30 -60 -63 -122 -74
-138 -21 -29 -18 -51 6 -42 18 7 75 104 159 274 38 74 76 144 86 155 10 11 21
34 25 52 13 62 70 106 91 71z m-4188 -217 c10 -6 8 -10 -10 -14 -41 -12 -55
-8 -34 8 23 17 26 18 44 6z m3486 -776 c3 -8 1 -50 -5 -93 -21 -166 -12 -330
27 -477 5 -17 -4 -25 -48 -45 -29 -14 -65 -38 -79 -53 -21 -23 -31 -27 -45
-19 -12 6 -46 6 -94 0 -161 -21 -392 11 -555 75 -152 61 -182 87 -155 137 6
12 14 49 18 83 l7 62 39 -3 c49 -4 213 23 296 49 68 22 156 62 352 160 130 65
187 98 207 123 17 20 27 20 35 1z m833 -502 c56 -26 93 -64 93 -94 0 -25 -9
-24 -61 5 -71 38 -138 49 -268 43 -145 -6 -238 -26 -344 -74 -90 -40 -241
-147 -306 -218 -23 -25 -44 -45 -46 -45 -13 0 -3 98 13 121 52 78 197 166 392
238 173 64 418 75 527 24z m-3497 -2200 c33 -42 23 -57 -42 -64 -164 -18 -327
-168 -417 -383 -34 -82 -55 -200 -45 -255 4 -20 15 -53 26 -75 17 -33 18 -41
6 -53 -22 -21 -45 -6 -94 60 l-44 61 0 97 c0 153 48 271 176 433 71 90 232
182 344 196 30 4 58 8 62 9 4 0 16 -11 28 -26z m-62 -209 c51 -7 98 -17 104
-20 6 -4 61 -10 122 -14 123 -8 166 -22 222 -75 40 -38 45 -79 13 -120 -20
-24 -26 -26 -65 -20 -39 5 -44 4 -44 -13 0 -10 11 -29 25 -42 15 -14 25 -33
23 -45 -2 -16 -10 -20 -40 -20 -21 0 -44 -7 -53 -16 -15 -15 -14 -19 10 -55
14 -21 25 -47 23 -59 -4 -25 -40 -32 -58 -10 -18 21 -63 19 -85 -5 -17 -19
-17 -22 0 -75 21 -69 11 -88 -44 -80 -172 28 -371 85 -437 126 -82 52 -104 77
-104 121 0 41 18 126 30 143 4 6 12 24 18 42 29 87 195 272 230 258 9 -4 59
-14 110 -21z m710 7 c15 -41 33 -46 182 -56 52 -3 226 -14 385 -25 160 -11
394 -27 520 -35 127 -9 289 -20 360 -26 72 -6 256 -12 410 -13 l280 -3 8 -49
c15 -90 16 -159 1 -211 -14 -51 -15 -52 -50 -50 -23 1 -39 -3 -45 -13 -5 -8
-76 -287 -159 -620 -83 -333 -155 -616 -161 -630 -5 -14 -42 -48 -81 -76 -67
-49 -75 -52 -166 -64 -101 -14 -333 -8 -427 11 -27 5 -129 16 -225 23 -96 8
-206 19 -245 24 -38 6 -131 18 -205 28 -74 9 -184 28 -245 41 -239 54 -221 51
-595 97 -69 8 -172 20 -230 26 -97 10 -165 21 -447 79 -56 11 -135 22 -175 23
l-72 3 -18 45 c-38 97 -6 193 155 454 43 70 46 93 12 106 l-24 9 36 76 c28 60
34 83 30 112 l-6 35 37 -6 c20 -4 63 -10 94 -13 53 -5 60 -4 84 21 15 14 31
26 35 26 5 0 65 -13 134 -30 69 -16 140 -30 159 -30 19 0 60 -7 91 -15 92 -24
132 7 122 93 l-5 44 50 -6 c70 -10 88 8 88 84 0 50 3 60 24 74 14 9 27 12 30
8 2 -4 21 -53 41 -107 88 -240 83 -232 113 -216 24 13 27 9 57 -64 23 -56 55
-74 55 -30 0 18 4 24 12 19 7 -4 28 -10 48 -14 30 -5 35 -9 36 -34 1 -28 26
-56 49 -56 15 0 38 27 59 68 l17 32 77 -6 c66 -6 81 -4 95 10 9 10 17 26 17
36 0 28 -42 52 -74 44 -23 -5 -26 -3 -26 20 0 16 -14 41 -36 65 l-35 40 28 14
c15 8 49 20 76 27 35 9 47 17 47 31 0 24 -16 24 -119 -2 -45 -11 -89 -18 -97
-15 -8 3 -28 35 -44 70 -32 70 -51 84 -86 61 -30 -19 -30 -46 -2 -88 67 -99
67 -97 43 -117 -24 -20 -19 -59 10 -72 19 -9 29 -7 51 7 24 15 28 16 42 1 9
-8 14 -18 11 -20 -2 -3 -47 -8 -98 -12 -63 -5 -94 -11 -98 -21 -3 -7 -9 -13
-13 -13 -12 0 -19 37 -8 48 9 9 -3 47 -133 404 -21 60 -39 122 -39 138 0 48
-27 100 -71 138 -33 29 -38 37 -27 49 11 13 33 14 143 9 71 -4 131 -11 133
-15z m-173 -529 c32 -85 55 -155 52 -158 -5 -5 -25 44 -82 197 -31 87 -43 130
-31 118 3 -3 30 -73 61 -157z m4795 33 c30 -10 81 -30 112 -46 65 -33 74 -52
64 -127 -24 -190 -74 -515 -101 -657 -17 -93 -19 -188 -5 -215 8 -15 4 -23
-21 -44 -39 -33 -47 -33 -51 2 -2 19 -9 28 -26 30 -13 2 -28 -1 -35 -6 -19
-16 -84 -30 -212 -47 -145 -20 -211 -13 -285 26 -47 25 -59 37 -82 87 -32 68
-105 337 -148 552 -18 85 -37 180 -44 210 -9 45 -15 56 -33 58 -24 3 -30 26
-14 50 6 10 10 10 21 -3 18 -22 36 -19 85 15 64 44 144 85 201 104 115 37 465
44 574 11z m-893 -293 c7 -31 24 -111 37 -177 13 -66 27 -132 31 -147 5 -18 3
-28 -4 -28 -6 0 -11 9 -11 19 0 11 -12 57 -26 103 -29 91 -65 278 -57 291 9
14 17 -3 30 -61z m-4302 -921 c53 -11 5 -12 -55 -2 -34 6 -37 9 -15 9 17 1 48
-3 70 -7z"/>
<path d="M5350 7525 c-24 -64 1 -213 50 -292 35 -58 80 -33 80 46 0 56 -34
194 -59 236 -23 40 -58 45 -71 10z"/>
<path d="M6711 7504 c-27 -34 -43 -96 -35 -129 7 -27 48 -65 70 -65 29 0 47
-48 41 -109 -5 -46 -3 -62 9 -72 25 -20 45 10 51 77 7 79 -12 125 -66 156 -48
27 -54 59 -19 103 16 21 19 31 11 44 -16 26 -39 24 -62 -5z"/>
<path d="M5760 6565 c0 -47 -26 -89 -101 -161 -160 -151 -466 -266 -554 -208
-28 18 -55 13 -55 -10 0 -29 42 -41 140 -40 83 1 106 6 186 37 50 19 109 44
131 55 79 41 191 121 231 167 l41 46 28 -19 c73 -52 100 -26 38 38 -21 21 -38
51 -43 75 -9 48 -42 63 -42 20z"/>
<path d="M7458 5449 c-27 -16 -23 -65 7 -85 23 -15 27 -15 50 0 60 39 4 121
-57 85z"/>
<path d="M7747 5327 c-23 -19 -27 -43 -11 -66 27 -38 84 -22 84 25 0 35 -47
61 -73 41z"/>
<path d="M7459 5129 c-28 -52 36 -93 76 -49 15 17 16 24 7 45 -15 33 -66 35
-83 4z"/>
<path d="M2891 6401 c-19 -12 -23 -108 -4 -126 18 -19 28 -19 46 -1 10 11 13
30 9 68 -6 62 -20 78 -51 59z"/>
<path d="M3891 6371 c-10 -7 -12 -23 -6 -70 6 -50 4 -65 -8 -74 -22 -18 -32
-101 -13 -116 24 -20 56 3 56 41 0 18 9 41 20 53 17 19 19 30 14 84 -8 76 -29
103 -63 82z"/>
<path d="M3130 6325 c-28 -33 -12 -114 23 -115 17 0 47 42 47 66 0 55 -41 84
-70 49z"/>
<path d="M3316 6148 c-44 -67 -70 -117 -65 -122 11 -12 5 -20 83 102 75 115
83 132 67 132 -6 0 -45 -51 -85 -112z"/>
<path d="M2573 6144 c-11 -30 11 -49 56 -49 47 0 76 22 65 49 -9 23 -112 23
-121 0z"/>
<path d="M3403 6024 c-83 -49 -111 -74 -84 -74 15 0 185 107 189 119 6 19 -11
12 -105 -45z"/>
<path d="M2912 6044 c-14 -9 -22 -26 -22 -43 0 -23 7 -32 35 -45 38 -18 44
-39 19 -67 -22 -25 -10 -59 22 -59 24 0 64 31 64 50 0 5 20 18 44 28 45 21 63
53 51 93 -10 29 -53 25 -65 -6 -15 -40 -32 -32 -70 33 -22 35 -44 40 -78 16z"/>
<path d="M2615 5963 c-43 -11 -46 -47 -5 -68 55 -28 100 -15 100 30 0 33 -44
50 -95 38z"/>
<path d="M3330 5892 c0 -9 138 -22 227 -22 31 0 43 4 41 13 -5 14 -268 23
-268 9z"/>
<path d="M2693 5750 c-73 -36 -103 -60 -73 -60 16 0 180 84 180 92 0 15 -26 7
-107 -32z"/>
<path d="M4266 5717 c-14 -11 -17 -21 -12 -42 9 -36 60 -87 80 -79 24 9 30 43
10 65 -9 10 -22 29 -28 41 -14 28 -27 32 -50 15z"/>
<path d="M2757 5632 c-70 -71 -91 -102 -69 -102 13 0 162 154 162 168 0 23
-16 12 -93 -66z"/>
<path d="M2905 5649 c-22 -61 -65 -195 -65 -206 0 -7 4 -13 9 -13 14 0 82 213
71 224 -6 6 -11 4 -15 -5z"/>
<path d="M3854 2516 c-3 -8 -4 -23 -2 -33 4 -21 46 -25 473 -43 154 -6 475
-19 714 -29 239 -11 440 -17 447 -14 32 12 25 60 -10 68 -11 2 -205 11 -431
20 -225 9 -554 23 -730 30 -415 19 -454 19 -461 1z"/>
<path d="M4501 2181 c-32 -32 -25 -57 37 -125 35 -39 53 -44 72 -21 12 14 11
29 -6 69 -7 18 -4 19 46 13 91 -11 123 -46 109 -121 -8 -46 2 -72 32 -81 54
-17 74 59 44 163 -25 83 -71 107 -226 118 -79 6 -88 5 -108 -15z"/>
<path d="M4915 2124 c-19 -20 -18 -23 30 -98 31 -48 40 -57 62 -54 59 7 55 60
-8 126 -44 46 -59 50 -84 26z"/>
<path d="M4398 2085 c-9 -21 -7 -29 16 -60 33 -42 68 -47 91 -11 19 28 10 55
-27 80 -34 24 -67 20 -80 -9z"/>
<path d="M4662 2058 c-35 -35 14 -102 57 -79 45 25 33 91 -17 91 -16 0 -33 -5
-40 -12z"/>
<path d="M4600 1923 c-66 -44 -79 -60 -80 -95 0 -19 9 -34 30 -50 17 -12 28
-28 25 -36 -7 -20 12 -50 44 -66 25 -13 31 -13 50 0 24 18 28 56 6 74 -25 21
-17 30 25 30 27 0 47 7 60 20 25 25 25 32 2 61 -17 20 -22 21 -63 11 -41 -10
-43 -9 -21 5 24 17 29 52 10 71 -18 18 -28 15 -88 -25z"/>
<path d="M4147 1868 c-24 -19 -49 -87 -43 -114 5 -18 3 -22 -8 -18 -8 3 -49
-1 -91 -10 -43 -9 -110 -16 -151 -16 -71 0 -74 1 -74 23 0 55 -60 65 -90 15
-49 -81 -12 -128 98 -128 l60 0 18 -57 c18 -54 22 -58 52 -61 41 -4 49 14 35
80 -6 31 -6 51 0 55 5 3 41 7 79 7 75 2 104 20 94 59 -3 12 2 17 19 17 29 0
40 14 55 77 11 42 11 55 1 67 -16 19 -32 20 -54 4z"/>
<path d="M4346 1804 c-9 -8 -16 -26 -16 -39 0 -19 11 -30 53 -50 28 -14 61
-33 72 -43 26 -22 95 -107 95 -116 0 -4 -11 -22 -25 -40 -31 -41 -32 -71 -1
-91 32 -21 47 -13 82 46 52 91 197 196 303 223 36 9 47 16 49 34 4 27 -14 52
-38 52 -33 0 -146 -52 -219 -102 -87 -59 -84 -59 -188 39 -71 67 -119 103
-140 103 -6 0 -19 -7 -27 -16z"/>
<path d="M7690 2075 c-28 -34 22 -69 157 -107 67 -19 100 -22 243 -21 181 1
287 17 378 58 44 21 53 28 50 47 -4 29 -40 29 -118 0 -169 -63 -540 -49 -645
24 -25 18 -49 18 -65 -1z"/>
<path d="M8435 1670 c-22 -10 -48 -19 -57 -19 -20 -1 -42 -36 -32 -52 13 -22
115 11 144 46 11 13 11 18 -1 29 -12 12 -21 11 -54 -4z"/>
<path d="M7995 1631 c-147 -6 -185 -17 -185 -51 0 -23 15 -25 50 -5 18 10 63
14 167 15 146 0 193 8 193 35 0 11 -10 15 -42 13 -24 -1 -106 -4 -183 -7z"/>
<path d="M8337 1513 c-4 -3 -30 -7 -59 -8 -46 -1 -53 -5 -56 -23 -3 -20 1 -22
55 -22 63 0 106 20 97 45 -6 16 -26 20 -37 8z"/>
<path d="M7949 1465 c-34 -19 -53 -59 -34 -75 11 -9 19 -6 36 14 20 24 30 26
96 26 58 0 75 3 80 16 3 9 0 19 -6 24 -23 13 -145 10 -172 -5z"/>
</g>
</svg>
