<?xml version="1.0" standalone="no"?>
<!DOCTYPE svg PUBLIC "-//W3C//DTD SVG 20010904//EN"
 "http://www.w3.org/TR/2001/REC-SVG-20010904/DTD/svg10.dtd">
<svg version="1.0" xmlns="http://www.w3.org/2000/svg"
 width="864.000000pt" height="853.600000pt" viewBox="0 0 864.000000 853.600000"
 preserveAspectRatio="xMidYMid meet">
<metadata>
Created by potrace 1.13, written by Peter Selinger 2001-2015
</metadata>
<g transform="translate(0.000000,853.600000) scale(0.080000,-0.080000)"
fill="#000000" stroke="none">
<path d="M0 5335 l0 -5335 2538 1 c2135 1 2515 3 2397 14 -1117 102 -2157 539
-3005 1261 -154 131 -482 461 -606 609 -565 678 -943 1437 -1133 2275 -246
1086 -143 2231 295 3263 203 480 484 937 838 1362 124 148 452 478 606 609
848 722 1888 1159 3005 1261 118 11 -262 13 -2397 14 l-2538 1 0 -5335z"/>
<path d="M5865 10655 c1117 -102 2157 -539 3005 -1261 154 -131 482 -461 606
-609 565 -678 943 -1437 1133 -2275 246 -1086 143 -2231 -295 -3263 -203 -480
-484 -937 -838 -1362 -124 -148 -452 -478 -606 -609 -848 -722 -1888 -1159
-3005 -1261 -118 -11 262 -13 2398 -14 l2537 -1 0 5335 0 5335 -2537 -1
c-2136 -1 -2516 -3 -2398 -14z"/>
<path d="M5594 10126 c-37 -16 -61 -47 -74 -98 -14 -51 0 -87 33 -81 21 4 25
12 30 51 7 63 25 75 110 69 100 -7 212 -64 296 -151 63 -66 69 -81 38 -100
-13 -8 -22 -5 -45 17 -15 15 -35 27 -44 27 -9 0 -40 11 -70 25 -41 19 -69 25
-124 25 -78 0 -90 -7 -109 -64 -9 -28 -14 -31 -47 -29 -24 2 -54 15 -86 37
-121 88 -302 146 -509 166 -262 24 -518 -50 -617 -181 -45 -57 -108 -183 -108
-213 0 -12 1 -51 2 -89 2 -71 -13 -112 -48 -124 -33 -12 -248 -179 -345 -268
-111 -102 -167 -173 -288 -365 -147 -233 -209 -380 -209 -493 0 -54 19 -81 80
-112 60 -31 112 -75 140 -120 24 -38 28 -125 10 -185 -13 -46 -13 -106 1 -133
24 -47 57 -68 168 -112 134 -52 235 -75 327 -75 54 0 64 -3 64 -17 1 -54 21
-320 30 -393 39 -308 121 -612 226 -842 55 -119 158 -282 224 -353 119 -129
128 -144 159 -271 33 -137 32 -184 -5 -184 -17 0 -42 -18 -77 -55 -28 -30 -60
-55 -69 -55 -9 0 -25 13 -34 29 -38 65 -118 68 -180 8 -33 -32 -42 -35 -95
-35 -50 0 -59 3 -59 18 0 10 -7 26 -16 34 -23 23 -48 5 -63 -46 -30 -99 -164
-319 -194 -318 -7 1 -21 15 -32 33 -26 40 -103 71 -158 63 -38 -6 -39 -6 -33
21 25 133 18 153 -54 153 -27 0 -68 -7 -90 -16 -23 -9 -44 -14 -47 -10 -3 3
13 25 35 48 47 47 52 72 21 89 -19 10 -27 5 -66 -33 -33 -32 -52 -43 -75 -43
-41 0 -59 -27 -35 -53 9 -10 17 -21 17 -24 0 -16 -58 -17 -116 -2 -36 9 -71
13 -79 10 -18 -7 -20 -37 -3 -54 13 -13 15 -12 -34 -39 -35 -20 -37 -20 -52
-4 -9 10 -16 25 -16 34 0 23 -31 38 -53 26 -21 -12 -22 -31 -1 -70 8 -17 14
-32 12 -34 -6 -7 -93 20 -106 32 -18 17 -32 16 -53 -3 -16 -14 -18 -14 -23 4
-8 23 -29 34 -50 26 -24 -9 -26 -32 -8 -70 16 -34 16 -36 -3 -50 -26 -19 -45
-17 -45 5 0 28 -17 36 -100 49 -164 26 -312 132 -359 257 -36 94 -61 230 -67
360 -5 129 -14 150 -53 126 -11 -7 -14 -33 -12 -118 4 -207 50 -393 121 -492
62 -85 217 -173 353 -201 39 -8 55 -15 50 -23 -4 -7 -41 -66 -82 -133 -78
-123 -99 -162 -125 -226 -8 -20 -33 -61 -55 -90 -104 -138 -380 -685 -495
-983 -37 -93 -74 -186 -82 -205 -9 -19 -29 -71 -46 -115 -16 -43 -33 -84 -38
-90 -22 -26 -53 -261 -54 -405 -1 -145 8 -217 46 -382 29 -129 115 -253 226
-330 102 -70 143 -82 319 -89 134 -5 169 -10 205 -27 24 -12 74 -24 111 -28
65 -7 69 -6 97 21 l29 28 133 -31 c73 -17 153 -33 178 -35 25 -3 65 -10 89
-16 78 -21 111 4 111 85 l0 55 54 -6 c50 -7 55 -5 67 16 7 13 13 48 14 76 0
40 5 56 20 67 11 9 22 16 25 16 3 0 18 -35 34 -77 98 -267 96 -263 128 -260
27 2 31 -3 53 -53 24 -57 55 -79 55 -41 0 17 5 20 23 17 78 -16 77 -15 77 -45
0 -16 7 -34 15 -41 22 -18 64 -4 77 28 25 58 34 62 114 55 80 -6 104 3 104 41
0 32 -19 46 -62 46 -35 0 -38 2 -38 27 0 18 -13 40 -37 65 l-37 38 35 14 c19
8 53 20 77 27 39 11 54 31 33 44 -5 3 -48 -4 -96 -15 -47 -11 -92 -20 -100
-20 -16 0 -65 78 -65 103 0 9 -11 24 -25 33 -23 15 -27 15 -50 0 -34 -22 -32
-40 15 -114 22 -34 40 -66 40 -69 0 -4 -7 -14 -16 -24 -43 -47 24 -103 70 -59
l24 21 16 -23 16 -23 -52 -8 c-29 -5 -71 -8 -93 -8 -22 0 -47 -7 -57 -16 -16
-14 -18 -14 -24 1 -3 9 -3 23 0 32 3 9 -30 118 -75 242 -44 125 -87 259 -94
298 -14 79 -30 109 -75 142 -16 13 -30 29 -30 37 0 23 42 28 166 20 109 -7
116 -8 124 -30 11 -30 17 -31 315 -50 254 -16 484 -32 965 -66 165 -12 420
-22 578 -24 324 -3 309 1 338 -93 45 -155 80 -245 113 -295 116 -177 139 -202
266 -292 162 -115 316 -176 451 -178 72 -1 89 3 146 31 36 18 96 60 133 95 37
34 76 68 86 75 25 18 155 193 213 287 56 93 260 500 313 625 20 47 53 128 73
180 21 52 50 122 64 156 14 33 49 126 77 205 28 79 80 225 115 324 39 108 70
214 78 265 l12 85 47 -3 c42 -3 52 1 92 35 25 20 45 45 45 55 0 11 14 25 34
34 18 9 41 31 50 48 9 17 28 46 41 65 30 41 34 119 9 166 -9 17 -27 51 -40 77
-14 26 -38 57 -55 69 -29 21 -30 22 -13 47 14 21 16 42 11 131 -16 309 -54
437 -157 536 -32 30 -66 55 -75 55 -13 0 -16 6 -11 23 24 97 34 374 16 482 -5
33 -14 103 -20 155 -27 248 -104 466 -215 610 -61 79 -211 219 -279 259 -128
77 -353 128 -370 85 -13 -33 11 -50 87 -62 49 -9 90 -23 121 -42 26 -17 58
-30 71 -30 33 0 31 -14 -4 -40 -17 -11 -42 -45 -57 -76 -25 -51 -26 -61 -21
-147 6 -106 29 -176 77 -236 41 -51 83 -76 159 -96 105 -27 224 -13 270 32 7
8 18 12 25 10 20 -6 56 -169 66 -297 5 -69 14 -149 20 -179 13 -68 13 -247 0
-326 -5 -33 -15 -98 -20 -145 -6 -47 -18 -107 -27 -135 -11 -34 -17 -86 -17
-165 -1 -109 0 -118 29 -168 31 -57 106 -151 214 -269 150 -164 160 -179 161
-240 0 -53 -11 -59 -48 -28 -16 14 -34 25 -39 25 -5 0 -19 11 -31 25 -29 34
-59 32 -138 -10 -36 -19 -74 -35 -85 -35 -13 0 -28 20 -52 73 -47 100 -138
185 -274 255 -55 28 -125 58 -154 66 -174 45 -320 126 -435 241 -115 115 -145
165 -211 355 -50 142 -61 165 -81 168 -13 2 -25 -3 -28 -13 -7 -18 14 -104 53
-213 25 -71 25 -73 7 -93 -10 -12 -34 -29 -53 -39 l-35 -17 -120 58 c-117 57
-124 59 -203 59 l-81 0 0 130 c0 124 2 132 27 172 18 29 57 63 114 101 47 32
100 77 117 100 69 93 121 241 107 299 -4 13 -15 33 -26 44 -19 21 -19 22 5 88
32 88 33 182 3 220 -11 14 -27 26 -35 26 -11 0 -14 16 -14 68 0 50 -5 76 -20
100 l-21 34 34 38 c19 20 51 67 71 103 33 59 40 66 76 72 127 21 332 170 400
291 42 75 46 120 20 239 -31 141 -31 137 10 146 45 10 176 82 213 117 16 15
44 59 64 99 33 67 36 80 42 194 l6 122 65 33 c75 38 112 77 147 154 39 83 42
113 32 244 -16 212 -41 286 -147 442 -89 133 -299 338 -352 346 -21 3 -28 14
-49 78 -49 153 -101 256 -160 319 -112 118 -232 196 -356 233 -148 43 -495 25
-495 -26 0 -18 46 -40 67 -31 39 15 238 16 331 1 106 -17 145 -36 140 -69 -3
-19 -8 -22 -38 -19 -19 2 -154 3 -300 3 -290 -1 -334 6 -384 56 -23 23 -26 34
-26 92 0 59 -4 72 -31 109 -55 75 -187 158 -296 186 -74 19 -118 20 -159 2z
m-469 -191 c141 -26 224 -62 295 -124 36 -31 43 -42 33 -52 -10 -10 -38 -10
-140 -1 -71 7 -141 15 -158 18 -16 3 -133 7 -260 10 -245 4 -331 -6 -385 -45
-22 -16 -29 -16 -57 -4 -18 7 -33 18 -33 24 0 20 98 106 147 129 94 44 202 60
373 56 85 -3 169 -7 185 -11z m-241 -1057 c3 -18 8 -55 11 -83 7 -61 14 -83
77 -260 28 -77 72 -186 99 -241 l48 -102 -20 -57 c-11 -32 -18 -64 -15 -71 8
-20 30 -17 51 6 28 31 41 25 80 -41 101 -172 205 -252 348 -266 72 -6 113 9
201 72 27 20 59 35 70 33 19 -3 57 -48 101 -120 22 -36 58 -45 63 -15 2 9 -10
34 -26 55 -33 42 -52 75 -52 91 0 16 56 -9 116 -52 67 -47 123 -74 181 -87 69
-16 89 -33 108 -92 20 -63 76 -169 115 -218 15 -19 31 -45 35 -58 5 -18 13
-22 33 -20 38 5 68 68 74 160 7 103 44 183 111 238 l52 42 70 -4 c86 -6 149
-34 209 -95 66 -65 132 -202 167 -342 49 -198 39 -252 -66 -356 -101 -100
-207 -164 -297 -179 -61 -10 -73 -16 -81 -37 -30 -75 -55 -119 -90 -156 -22
-24 -44 -43 -50 -43 -6 0 -23 11 -37 25 -33 31 -103 37 -142 11 -23 -15 -32
-16 -61 -5 -28 10 -39 9 -71 -6 -40 -19 -67 -56 -114 -152 -37 -76 -75 -142
-132 -228 -26 -38 -57 -90 -70 -114 -40 -80 -89 -228 -95 -292 -4 -35 -11 -78
-16 -94 -14 -47 -88 -111 -170 -148 -115 -52 -121 -54 -203 -68 -61 -10 -89
-10 -134 -1 -75 16 -174 57 -242 102 -30 20 -62 39 -71 42 -34 13 -173 134
-270 236 -101 107 -161 180 -193 237 -9 17 -22 39 -29 49 -134 212 -190 348
-226 553 -11 59 -27 144 -36 188 -59 293 -73 449 -54 615 7 63 12 146 10 184
-2 65 1 73 64 203 76 157 119 223 144 223 22 0 104 -79 145 -137 18 -27 33
-68 41 -110 6 -38 24 -108 39 -158 15 -49 30 -116 33 -147 5 -54 4 -58 -15
-58 -12 0 -34 -11 -49 -24 -28 -24 -28 -25 -27 -143 1 -84 6 -131 17 -162 22
-57 22 -58 -10 -76 -77 -43 -89 -54 -108 -90 -16 -32 -19 -58 -18 -128 l2 -88
77 -157 c42 -86 87 -183 100 -215 12 -32 36 -74 52 -95 16 -20 41 -58 56 -84
27 -47 88 -108 107 -108 25 0 19 33 -13 68 -78 87 -165 225 -254 402 -57 116
-72 163 -79 261 -8 105 4 127 104 192 39 26 77 57 85 70 45 71 46 303 2 521
-15 71 -24 131 -21 134 2 3 16 -3 30 -12 26 -17 45 -14 45 6 0 6 -21 29 -46
51 -49 43 -94 123 -94 168 0 15 -12 62 -27 105 -68 192 -16 464 128 678 55 80
79 106 100 106 13 0 20 -10 23 -32z m1644 -2320 c18 -23 13 -129 -10 -188 -87
-231 -89 -235 -180 -354 -62 -82 -80 -116 -60 -116 8 0 104 107 144 160 29 39
67 125 110 250 46 136 72 181 96 166 16 -9 23 -97 11 -140 -6 -22 -18 -68 -26
-101 -16 -59 -83 -196 -129 -265 -13 -19 -24 -40 -24 -47 0 -23 19 -14 35 16
8 17 48 81 89 143 40 62 79 130 87 151 7 20 18 36 24 34 5 -2 11 -36 13 -76 3
-69 0 -78 -40 -159 -36 -71 -66 -110 -177 -228 -73 -79 -139 -145 -147 -148
-17 -6 -19 -46 -3 -46 6 0 30 21 52 46 22 25 78 77 123 115 46 38 101 94 121
124 60 85 88 85 81 0 -8 -95 -94 -208 -259 -342 l-68 -54 -6 -67 c-25 -262
-30 -279 -94 -287 -89 -13 -198 -48 -321 -104 -61 -28 -68 -27 -79 17 -42 157
-29 490 24 617 15 38 25 80 25 114 0 61 25 169 45 191 7 8 16 26 20 40 4 14
17 41 29 60 42 65 152 265 176 320 38 83 80 149 102 156 35 11 53 -19 51 -83
-3 -53 -18 -87 -83 -193 -5 -8 -32 -62 -61 -120 -28 -58 -58 -113 -67 -123
-14 -16 -14 -20 -2 -27 9 -5 19 -5 27 2 15 12 77 125 158 288 32 63 66 124 75
135 10 11 25 42 35 68 23 61 59 84 83 55z m-707 -1049 c-2 -35 -6 -107 -10
-159 -7 -114 3 -251 24 -310 21 -60 20 -65 -27 -86 -24 -10 -60 -34 -80 -52
-29 -26 -41 -31 -55 -24 -11 6 -46 6 -93 0 -196 -25 -423 14 -632 109 -83 38
-95 54 -77 99 6 16 14 56 17 89 7 59 8 60 37 57 43 -4 188 17 275 40 41 11
134 49 208 84 73 35 135 64 137 64 14 0 215 116 235 136 36 36 45 25 41 -47z
m832 -441 c52 -22 97 -68 97 -99 0 -10 -2 -19 -4 -19 -2 0 -35 15 -72 33 l-69
32 -155 -1 c-180 -1 -262 -19 -398 -84 -88 -42 -225 -143 -286 -210 -20 -22
-38 -40 -41 -40 -3 0 -5 21 -5 47 0 59 23 94 104 155 96 73 286 161 406 188
148 33 342 32 423 -2z m-3494 -2204 c37 -47 29 -61 -37 -67 -151 -13 -310
-152 -402 -350 -60 -130 -76 -248 -44 -332 26 -66 28 -84 11 -91 -25 -9 -50
10 -91 71 l-39 56 0 102 c0 84 4 116 26 179 33 95 126 237 202 306 70 64 200
129 281 141 33 5 62 9 66 10 4 0 16 -11 27 -25z m-64 -210 c50 -8 97 -17 105
-20 8 -4 65 -10 127 -14 85 -5 121 -12 155 -29 89 -47 115 -92 87 -154 -14
-30 -50 -49 -70 -36 -48 30 -62 -12 -19 -56 29 -30 31 -36 20 -51 -10 -11 -24
-14 -46 -11 -54 9 -69 -23 -33 -72 26 -35 22 -75 -7 -79 -11 -2 -27 4 -34 13
-28 34 -111 -3 -94 -43 42 -99 28 -127 -56 -112 -177 30 -345 77 -401 112 -20
13 -56 40 -80 61 l-43 37 13 75 c21 130 91 255 195 353 42 39 61 52 74 47 9
-4 58 -14 107 -21z m511 -437 c12 -34 40 -110 62 -169 22 -60 37 -108 33 -108
-3 0 -16 26 -27 58 -107 287 -113 304 -97 289 3 -4 16 -35 29 -70z"/>
<path d="M5340 7455 c-31 -82 31 -325 83 -325 27 0 47 36 47 81 0 54 -35 192
-59 234 -23 40 -58 45 -71 10z"/>
<path d="M6700 7428 c-26 -42 -32 -66 -28 -113 3 -34 9 -42 48 -65 60 -35 76
-67 60 -128 -10 -40 -9 -48 5 -58 27 -20 44 -6 51 43 15 102 -10 166 -77 193
-35 15 -38 41 -9 88 24 39 25 58 4 66 -27 10 -34 7 -54 -26z"/>
<path d="M5757 6514 c-4 -4 -7 -18 -7 -31 0 -39 -25 -75 -102 -149 -159 -151
-465 -266 -553 -208 -28 18 -55 13 -55 -10 0 -28 42 -41 135 -40 66 0 108 7
155 23 156 54 321 152 401 238 37 40 42 43 57 29 26 -22 67 -35 83 -26 11 7 5
18 -28 52 -28 28 -45 57 -50 82 -8 38 -22 54 -36 40z"/>
<path d="M6385 9982 c-22 -8 -70 -35 -107 -58 -37 -24 -81 -50 -98 -59 -21
-11 -30 -23 -30 -39 0 -38 21 -36 69 5 56 50 134 87 200 98 61 10 76 21 66 50
-8 25 -41 26 -100 3z"/>
<path d="M9065 8563 c-96 -39 -180 -111 -299 -257 -94 -115 -147 -198 -177
-277 -18 -44 -23 -89 -30 -244 -4 -104 -13 -208 -18 -230 -6 -22 -15 -87 -22
-145 -19 -179 -117 -441 -212 -565 -92 -121 -165 -179 -272 -215 -40 -14 -51
-22 -53 -42 -4 -36 24 -40 101 -13 91 32 139 67 228 167 138 157 257 440 278
661 6 60 15 126 21 147 l10 39 38 -40 c30 -32 51 -44 107 -60 79 -22 117 -24
147 -8 11 6 21 9 23 7 2 -2 -3 -75 -10 -163 -8 -88 -15 -197 -15 -241 0 -119
-25 -247 -65 -329 -69 -143 -220 -313 -402 -451 -115 -88 -237 -216 -249 -262
-8 -28 15 -56 37 -47 8 3 22 18 31 33 36 61 184 205 263 257 57 37 107 81 166
148 157 178 196 234 233 326 28 72 56 237 56 331 0 49 5 133 10 187 6 54 17
177 26 273 8 96 23 214 34 261 19 91 88 242 113 252 26 10 124 140 162 215 31
61 37 80 33 117 -7 62 -47 136 -87 162 -42 28 -144 31 -206 6z"/>
<path d="M3223 6979 c-21 -33 -52 -84 -70 -113 l-32 -52 -93 -17 c-107 -20
-189 -56 -303 -132 -169 -113 -265 -230 -265 -323 0 -45 10 -57 40 -47 13 4
22 19 26 43 10 56 37 102 91 153 125 119 280 209 403 235 83 17 115 13 123
-15 6 -23 84 -51 144 -51 77 0 163 61 163 116 0 13 5 34 11 48 10 22 6 31 -36
88 -117 154 -143 163 -202 67z"/>
<path d="M3504 6826 c-14 -38 0 -51 61 -57 74 -8 100 -18 173 -68 74 -50 119
-96 143 -143 21 -40 47 -49 69 -23 44 53 -160 247 -303 290 -66 19 -136 20
-143 1z"/>
<path d="M4060 6701 c-80 -25 -110 -62 -75 -91 12 -10 25 -8 67 10 45 19 64
22 130 17 69 -4 79 -3 88 13 15 27 13 30 -25 46 -36 15 -142 18 -185 5z"/>
<path d="M1464 6502 c-12 -2 -32 -14 -45 -28 -25 -27 -30 -74 -14 -146 l8 -38
-39 0 c-124 0 -162 -132 -66 -228 61 -61 101 -75 232 -80 108 -4 117 -3 144
19 l29 23 -6 120 c-6 139 -24 199 -81 270 -55 67 -110 97 -162 88z"/>
<path d="M2882 6328 c-7 -7 -12 -36 -12 -65 0 -40 4 -55 18 -62 31 -17 47 3
48 61 2 70 -22 98 -54 66z"/>
<path d="M2290 6319 c-113 -22 -126 -40 -105 -141 40 -195 46 -205 105 -206
53 -1 98 19 136 60 72 76 66 169 -16 251 -27 26 -54 47 -62 46 -7 -1 -33 -5
-58 -10z"/>
<path d="M3882 6298 c-7 -7 -9 -31 -5 -70 4 -44 2 -62 -9 -76 -23 -26 -30 -89
-12 -107 23 -23 50 -3 58 43 3 22 13 45 22 52 12 11 14 26 9 79 -8 77 -33 109
-63 79z"/>
<path d="M3120 6251 c-18 -35 -12 -89 11 -101 16 -9 25 -8 40 6 22 20 26 83 7
102 -18 18 -46 14 -58 -7z"/>
<path d="M3311 6080 c-67 -104 -83 -136 -61 -128 11 4 150 215 150 228 0 27
-24 0 -89 -100z"/>
<path d="M2571 6071 c-17 -31 11 -53 57 -45 58 9 64 12 60 36 -3 20 -10 23
-55 26 -43 3 -54 0 -62 -17z"/>
<path d="M3392 5953 c-87 -54 -107 -73 -81 -73 14 0 186 107 195 121 14 22
-29 5 -114 -48z"/>
<path d="M2902 5974 c-35 -25 -28 -60 18 -89 45 -28 49 -43 20 -68 -17 -14
-18 -21 -10 -37 19 -36 77 -18 91 27 2 7 24 23 49 35 42 22 45 26 45 63 0 33
-4 41 -21 43 -14 2 -27 -6 -38 -23 -14 -21 -20 -24 -37 -15 -11 6 -23 19 -26
28 -18 50 -52 63 -91 36z"/>
<path d="M1808 5916 c-88 -32 -122 -78 -120 -163 2 -66 30 -147 83 -236 101
-169 377 -365 428 -304 20 24 4 55 -33 66 -80 22 -245 154 -308 248 l-38 55
33 22 c43 29 96 109 103 157 4 22 10 39 14 39 11 0 82 -54 104 -79 37 -41 76
-23 76 34 0 32 -141 139 -212 160 -62 18 -81 18 -130 1z"/>
<path d="M2610 5891 c-34 -9 -38 -44 -8 -65 52 -37 125 -6 99 43 -16 30 -41
36 -91 22z"/>
<path d="M3330 5821 c0 -9 119 -21 207 -21 40 0 53 4 53 15 0 13 -21 15 -130
15 -71 0 -130 -4 -130 -9z"/>
<path d="M2688 5679 c-43 -21 -78 -44 -78 -49 0 -6 3 -10 7 -10 15 0 183 85
183 92 0 17 -38 6 -112 -33z"/>
<path d="M4256 5644 c-20 -20 -20 -21 7 -69 18 -33 28 -40 52 -40 41 0 42 23
5 79 -34 50 -41 54 -64 30z"/>
<path d="M2750 5555 c-46 -47 -81 -88 -77 -92 4 -4 46 31 94 79 47 47 81 88
76 91 -5 3 -47 -32 -93 -78z"/>
<path d="M2866 5480 c-41 -125 -40 -120 -23 -120 7 0 26 46 45 108 36 116 37
122 23 122 -6 0 -26 -49 -45 -110z"/>
<path d="M7446 5367 c-20 -30 -10 -66 22 -74 34 -8 56 8 60 43 6 50 -55 74
-82 31z"/>
<path d="M7732 5248 c-7 -7 -12 -21 -12 -33 0 -12 5 -26 12 -33 7 -7 21 -12
33 -12 12 0 26 5 33 12 7 7 12 21 12 33 0 12 -5 26 -12 33 -7 7 -21 12 -33 12
-12 0 -26 -5 -33 -12z"/>
<path d="M7451 5058 c-14 -38 2 -63 40 -63 28 0 35 5 44 28 8 24 6 31 -10 43
-29 22 -64 18 -74 -8z"/>
<path d="M3849 2444 c-9 -11 -10 -20 -2 -32 13 -22 75 -27 448 -41 279 -11
497 -20 952 -41 117 -5 219 -7 227 -4 20 8 28 34 15 50 -16 20 -51 22 -604 44
-280 11 -604 25 -720 30 -288 13 -300 13 -316 -6z"/>
<path d="M8035 2250 c-177 -18 -276 -53 -407 -142 -45 -31 -58 -45 -56 -62 5
-34 40 -30 104 13 157 105 231 123 504 125 188 1 198 0 275 -26 44 -15 95 -37
113 -48 57 -35 58 -45 22 -281 -48 -327 -58 -387 -75 -482 -9 -48 -15 -120
-13 -160 3 -69 4 -72 28 -72 24 0 25 4 33 70 4 39 16 124 27 190 21 122 43
270 61 405 5 41 16 111 24 155 25 134 23 164 -11 192 -45 37 -131 78 -214 102
-86 25 -282 35 -415 21z"/>
<path d="M5863 2188 c-4 -7 -78 -296 -165 -641 -86 -346 -159 -631 -161 -633
-2 -3 -36 -29 -76 -58 -65 -49 -79 -55 -153 -66 -90 -14 -364 -7 -453 11 -27
6 -129 16 -225 24 -96 7 -209 17 -250 23 -41 6 -131 19 -200 28 -69 9 -163 25
-210 35 -329 69 -522 98 -770 118 -63 6 -155 17 -205 26 -49 9 -113 20 -141
25 -28 5 -70 14 -94 20 -78 21 -205 40 -267 40 l-61 0 -18 45 c-36 95 2 217
130 420 61 97 70 137 29 143 -17 3 -27 -6 -44 -40 -12 -24 -39 -68 -59 -98
-82 -121 -140 -264 -140 -345 0 -66 27 -140 61 -169 28 -24 39 -26 117 -26 57
0 135 -11 227 -30 201 -42 353 -65 665 -101 177 -19 329 -43 425 -65 83 -18
215 -43 295 -54 80 -11 192 -26 250 -35 58 -8 161 -20 230 -26 69 -6 197 -19
284 -30 224 -27 365 -25 489 6 111 27 148 47 204 108 32 34 42 55 52 107 7 36
78 325 157 643 150 601 151 607 103 607 -10 0 -21 -6 -26 -12z"/>
<path d="M4496 2116 c-28 -22 -23 -60 15 -111 38 -50 63 -63 85 -44 15 12 15
35 -1 72 -6 14 -2 17 21 17 45 0 95 -17 120 -41 21 -19 22 -28 17 -85 -6 -61
-5 -64 21 -75 23 -11 29 -10 46 7 23 23 26 44 16 111 -11 76 -41 114 -104 135
-75 26 -211 33 -236 14z"/>
<path d="M4912 2058 c-20 -20 -14 -44 23 -103 40 -61 72 -72 99 -33 19 26 10
46 -47 106 -44 44 -56 49 -75 30z"/>
<path d="M4395 2020 c-17 -18 -17 -21 1 -51 25 -42 45 -53 77 -45 18 4 29 15
33 33 6 22 1 31 -27 55 -39 33 -59 35 -84 8z"/>
<path d="M7684 2005 c-16 -40 31 -73 150 -107 112 -31 373 -32 513 0 148 33
204 72 152 105 -13 8 -31 5 -70 -12 -123 -51 -398 -67 -547 -31 -45 11 -100
29 -122 40 -47 24 -69 25 -76 5z"/>
<path d="M4652 1988 c-13 -13 -16 -47 -4 -64 14 -23 49 -25 73 -5 20 16 22 23
14 47 -8 22 -18 30 -40 32 -17 2 -36 -3 -43 -10z"/>
<path d="M7543 1983 c-7 -2 -13 -17 -13 -31 -1 -57 139 -652 180 -769 23 -67
90 -144 155 -180 46 -25 59 -28 155 -28 236 0 438 53 417 109 -10 26 -34 30
-71 12 -65 -31 -304 -63 -387 -52 -82 11 -144 50 -179 111 -30 53 -116 356
-145 513 -30 157 -60 297 -68 310 -8 12 -23 14 -44 5z"/>
<path d="M4583 1845 c-34 -24 -64 -53 -68 -64 -9 -31 4 -68 31 -80 17 -8 24
-19 24 -40 0 -54 75 -89 102 -47 13 18 9 53 -7 66 -21 18 -9 30 31 30 44 0 78
32 68 63 -12 38 -28 43 -84 28 -34 -10 -34 -9 -12 6 27 19 29 59 3 73 -26 13
-19 16 -88 -35z"/>
<path d="M4138 1798 c-19 -15 -53 -103 -45 -115 9 -14 -160 -43 -246 -43 -74
0 -77 1 -77 24 0 50 -49 60 -81 16 -32 -45 -34 -76 -5 -104 22 -23 33 -26 94
-26 l69 0 7 -41 c10 -62 22 -79 57 -79 37 0 58 35 40 68 -6 11 -11 32 -11 46
0 28 5 29 101 26 53 -2 79 17 79 56 0 17 6 24 20 24 25 0 47 34 56 87 9 61
-19 91 -58 61z"/>
<path d="M4332 1728 c-7 -7 -12 -22 -12 -35 0 -19 11 -28 54 -47 54 -24 130
-93 156 -141 12 -22 10 -28 -14 -59 -31 -41 -33 -67 -7 -90 27 -25 57 -12 80
33 41 79 211 212 292 227 51 10 69 22 69 48 0 39 -24 51 -73 36 -57 -17 -131
-55 -200 -103 -69 -48 -66 -50 -190 64 -89 80 -126 96 -155 67z"/>
<path d="M8445 1602 c-17 -8 -43 -18 -59 -21 -36 -8 -56 -35 -39 -52 25 -25
143 27 143 62 0 26 -11 29 -45 11z"/>
<path d="M7999 1561 c-115 -5 -151 -10 -172 -24 -15 -9 -27 -22 -27 -28 0 -17
27 -21 52 -7 15 9 77 15 186 18 128 4 165 8 172 20 13 21 3 30 -33 28 -18 -1
-97 -4 -178 -7z"/>
<path d="M8325 1440 c-11 -5 -39 -9 -63 -9 -39 -1 -43 -3 -40 -23 3 -21 8 -23
56 -20 62 2 94 17 90 39 -4 20 -17 24 -43 13z"/>
<path d="M7960 1403 c-26 -10 -60 -46 -60 -64 0 -30 20 -32 49 -5 24 23 35 26
98 26 52 0 72 4 76 14 3 8 0 19 -6 23 -14 11 -134 15 -157 6z"/>
</g>
</svg>
