<?xml version="1.0" standalone="no"?>
<!DOCTYPE svg PUBLIC "-//W3C//DTD SVG 20010904//EN"
 "http://www.w3.org/TR/2001/REC-SVG-20010904/DTD/svg10.dtd">
<svg version="1.0" xmlns="http://www.w3.org/2000/svg"
 width="640.000000pt" height="640.000000pt" viewBox="0 0 640.000000 640.000000"
 preserveAspectRatio="xMidYMid meet">
<metadata>
Created by potrace 1.13, written by Peter Selinger 2001-2015
</metadata>
<g transform="translate(0.000000,640.000000) scale(0.080000,-0.080000)"
fill="#000000" stroke="none">
<path d="M1 6138 c1 -1157 5 -1827 11 -1768 147 1581 1225 2935 2732 3432 271
89 610 161 886 186 59 6 -611 10 -1767 11 l-1863 1 1 -1862z"/>
<path d="M4370 7988 c1581 -147 2935 -1225 3432 -2732 89 -271 161 -610 186
-886 6 -59 10 611 11 1768 l1 1862 -1862 -1 c-1157 -1 -1827 -5 -1768 -11z"/>
<path d="M4144 7551 c-25 -11 -57 -73 -52 -104 2 -14 11 -23 26 -25 19 -3 22
1 22 27 0 16 8 37 17 46 23 24 102 16 175 -17 65 -30 148 -107 148 -138 0 -24
-22 -26 -40 -5 -7 8 -19 15 -27 15 -7 0 -31 9 -53 20 -26 13 -59 20 -98 20
-61 0 -77 -8 -84 -45 -6 -31 -54 -23 -115 18 -109 73 -247 109 -423 110 -210
1 -334 -46 -407 -156 -57 -84 -66 -111 -64 -185 2 -63 -15 -112 -40 -112 -15
0 -161 -112 -247 -190 -87 -78 -128 -129 -219 -275 -112 -182 -153 -275 -153
-355 0 -52 13 -68 90 -112 65 -37 95 -93 85 -161 -18 -141 -19 -133 12 -165
51 -55 299 -134 367 -116 27 7 24 24 46 -226 21 -230 62 -412 139 -617 54
-146 126 -264 233 -384 59 -66 64 -75 85 -162 29 -120 29 -137 1 -137 -13 0
-42 -19 -69 -46 l-46 -45 -27 35 c-35 47 -77 49 -124 6 -27 -24 -42 -30 -78
-30 -36 0 -44 3 -44 19 0 20 -21 33 -37 23 -6 -4 -16 -25 -23 -47 -20 -63 -55
-127 -100 -184 l-42 -53 -18 30 c-20 33 -76 57 -116 49 -31 -6 -33 -2 -24 56
10 66 -3 82 -61 74 -24 -3 -55 -9 -69 -13 -24 -7 -24 -6 8 30 18 21 31 43 29
49 -7 22 -34 18 -65 -11 -17 -16 -41 -28 -54 -28 -17 1 -24 -5 -26 -21 -2 -13
1 -23 7 -23 6 0 11 -4 11 -9 0 -17 -42 -19 -91 -5 -27 8 -54 12 -59 9 -14 -9
-12 -43 2 -47 7 -3 -3 -12 -22 -22 -32 -16 -36 -16 -45 -1 -25 42 -33 48 -50
42 -17 -7 -17 -19 0 -60 7 -16 4 -17 -21 -12 -16 4 -39 12 -52 18 -16 8 -25 8
-34 -1 -8 -8 -15 -6 -27 9 -14 17 -18 18 -35 6 -15 -11 -17 -17 -7 -35 16 -31
13 -49 -9 -55 -15 -4 -20 0 -20 14 0 19 -7 22 -85 34 -97 15 -205 88 -245 166
-31 60 -52 159 -59 274 -6 101 -8 110 -26 110 -18 0 -20 -8 -23 -70 -7 -162
40 -335 113 -409 47 -49 165 -110 233 -121 23 -4 42 -9 42 -13 0 -7 -89 -152
-106 -172 -7 -8 -21 -38 -32 -66 -11 -28 -40 -80 -65 -115 -151 -220 -474
-938 -508 -1129 -7 -41 -13 -131 -13 -200 1 -292 83 -464 261 -547 66 -30 80
-33 168 -33 70 0 111 -5 152 -20 69 -24 140 -26 164 -4 16 14 27 14 131 -6 62
-12 132 -25 156 -31 91 -20 112 -9 112 58 l0 44 35 -7 c48 -9 65 8 65 61 0 39
22 77 35 63 5 -5 95 -237 95 -245 0 -2 10 -1 23 2 19 5 25 -1 41 -40 10 -25
23 -44 30 -42 6 3 10 10 8 16 -1 8 7 9 25 5 48 -10 51 -12 55 -36 2 -16 11
-24 28 -26 21 -2 29 4 43 32 l17 36 58 -6 c47 -5 60 -3 72 11 20 24 1 49 -39
53 -23 2 -31 7 -27 17 3 8 -6 28 -20 45 -14 16 -23 34 -20 38 3 5 26 15 51 22
94 26 59 49 -39 25 -36 -9 -69 -14 -74 -11 -4 2 -18 25 -31 51 -26 51 -44 64
-66 45 -22 -18 -19 -33 16 -85 23 -34 29 -49 20 -58 -36 -36 11 -86 49 -52 17
16 19 15 30 -4 10 -20 8 -21 -32 -23 -24 -1 -55 -1 -70 0 -15 1 -30 -3 -33 -8
-11 -18 -28 -11 -22 9 2 11 -24 99 -59 197 -35 98 -64 188 -64 201 0 36 -19
76 -53 111 -46 47 -30 56 87 47 81 -6 96 -10 101 -26 4 -10 14 -19 23 -19 10
0 278 -18 596 -40 367 -25 649 -40 772 -40 228 0 214 6 251 -120 25 -88 72
-188 97 -209 9 -8 16 -19 16 -25 0 -18 119 -129 186 -174 73 -49 159 -86 238
-102 107 -22 174 2 283 101 72 65 146 157 204 254 63 103 210 404 271 555 114
277 244 652 260 743 l11 67 40 0 c31 0 48 7 69 27 15 15 28 32 28 38 0 7 11
17 25 23 14 7 30 23 35 37 5 14 13 25 18 25 14 0 32 48 32 87 0 41 -43 128
-78 159 -20 18 -22 25 -13 42 25 47 -4 313 -44 397 -25 55 -96 135 -118 135
-11 0 -13 9 -6 43 12 62 12 298 -1 402 -35 282 -88 418 -218 556 -92 98 -172
152 -273 184 -91 28 -144 32 -153 10 -8 -22 21 -45 59 -45 18 0 59 -13 90 -30
31 -16 61 -27 66 -24 19 12 7 -9 -22 -38 -40 -40 -49 -66 -49 -139 0 -90 16
-141 63 -194 36 -40 52 -49 111 -66 78 -21 132 -18 185 13 19 10 37 15 41 11
22 -23 46 -200 57 -418 6 -127 -8 -280 -33 -373 -23 -81 -21 -200 4 -248 19
-37 144 -187 191 -228 11 -11 21 -25 21 -33 0 -7 7 -16 15 -19 23 -9 55 -68
55 -103 0 -34 -19 -42 -40 -16 -7 8 -16 15 -21 15 -5 0 -18 9 -29 20 -24 24
-48 25 -77 5 -12 -9 -40 -22 -61 -29 l-39 -14 -22 54 c-42 100 -184 203 -346
249 -106 30 -214 93 -291 170 -90 89 -112 125 -159 260 -42 121 -57 147 -77
127 -9 -9 -5 -34 19 -114 35 -112 33 -127 -17 -148 -29 -12 -37 -10 -117 30
-75 37 -95 43 -148 42 l-61 -1 1 98 c1 119 6 129 112 208 86 65 134 138 154
232 10 48 9 56 -9 81 -20 26 -20 27 -1 81 30 87 24 134 -22 180 -13 13 -18 27
-14 40 4 12 -1 41 -10 66 -17 44 -17 45 8 71 13 15 36 48 51 74 21 35 35 48
59 54 94 20 229 117 283 204 39 62 43 106 19 205 -18 77 -18 85 1 85 26 0 132
60 165 94 60 60 93 163 82 257 l-5 46 55 27 c61 30 95 68 122 139 15 40 17 65
12 151 -9 136 -34 215 -105 323 -62 94 -230 263 -262 263 -16 0 -50 62 -50 91
0 28 -67 159 -102 199 -44 49 -156 135 -205 155 -17 7 -66 21 -109 30 -91 21
-228 16 -289 -10 -37 -15 -38 -16 -19 -30 16 -11 35 -12 92 -5 124 16 302 -13
302 -49 0 -22 -27 -30 -70 -19 -28 6 -107 8 -210 4 -175 -7 -215 -1 -257 37
-18 16 -23 31 -23 73 0 49 -3 56 -48 102 -84 86 -246 144 -318 113z m-253
-160 c37 -12 87 -37 113 -57 81 -62 65 -69 -106 -49 -246 29 -526 19 -558 -20
-8 -10 -16 -10 -35 -1 -14 6 -25 14 -25 17 0 13 68 77 98 93 69 35 141 46 297
42 117 -3 164 -9 216 -25z m-267 -757 c3 -9 6 -33 6 -55 0 -43 81 -278 134
-389 l35 -71 -17 -45 c-19 -50 -7 -78 21 -50 27 27 41 18 89 -59 102 -162 262
-209 380 -110 48 40 71 34 109 -32 36 -60 55 -74 65 -49 4 9 -7 33 -25 58 -52
71 -35 78 49 21 30 -21 88 -49 129 -63 l73 -25 24 -64 c13 -35 42 -90 64 -123
22 -33 40 -64 40 -68 0 -11 25 -19 37 -12 22 14 43 73 43 119 0 60 36 139 79
176 62 52 175 32 252 -45 63 -63 139 -268 139 -374 0 -77 -56 -149 -175 -227
-44 -29 -130 -58 -149 -51 -12 5 -36 -35 -36 -60 0 -18 -79 -106 -94 -106 -7
0 -21 9 -31 20 -22 24 -55 26 -96 5 -22 -12 -34 -13 -50 -5 -37 20 -77 -15
-134 -120 -29 -52 -75 -130 -103 -172 -70 -108 -121 -249 -122 -335 0 -73
-150 -172 -290 -192 -58 -8 -74 -6 -140 16 -41 14 -91 35 -110 48 -19 13 -55
35 -80 50 -125 77 -275 241 -379 413 -106 177 -128 248 -202 667 -14 78 -17
245 -8 405 6 103 7 107 63 216 32 62 66 120 77 130 19 17 21 16 79 -45 33 -34
62 -74 65 -89 3 -15 19 -76 35 -137 42 -163 44 -175 20 -175 -42 0 -60 -34
-60 -113 0 -41 7 -96 15 -123 8 -26 11 -51 6 -54 -4 -3 -24 -16 -44 -28 -49
-31 -67 -68 -67 -139 0 -51 8 -74 63 -188 35 -71 70 -146 77 -165 27 -69 130
-200 157 -200 23 0 14 21 -28 68 -47 54 -132 194 -186 308 -30 62 -37 91 -41
156 -5 91 -1 99 85 154 40 27 54 42 62 72 18 63 13 259 -9 363 -19 94 -19 112
2 91 14 -14 38 -16 38 -4 0 5 -20 29 -45 55 -24 26 -47 57 -49 69 -12 65 -26
118 -41 158 -43 115 25 369 136 503 33 40 53 47 63 21z m1224 -1768 c3 -39 -6
-73 -44 -168 -25 -66 -58 -134 -73 -151 -94 -111 -110 -168 -19 -64 57 65 100
145 132 247 37 116 69 151 81 86 13 -65 -48 -240 -116 -338 -21 -29 -24 -48
-9 -48 6 0 10 4 10 10 0 5 28 53 63 107 34 54 69 112 76 128 l14 30 9 -39 c19
-86 -37 -190 -179 -337 -57 -58 -103 -109 -103 -112 0 -17 21 -3 71 46 30 29
68 64 84 77 17 14 50 49 74 78 24 28 48 52 53 52 4 0 8 -20 8 -43 0 -63 -58
-149 -159 -234 -72 -60 -81 -72 -85 -108 -26 -218 -28 -225 -85 -225 -34 0
-99 -21 -190 -60 -44 -19 -77 -28 -83 -22 -33 33 -36 358 -3 442 9 25 23 84
30 131 14 92 39 154 118 288 27 46 61 109 75 140 39 87 70 131 91 131 10 0 22
-7 25 -16 16 -42 2 -85 -78 -234 -45 -85 -78 -157 -73 -159 16 -6 33 20 108
164 39 77 78 147 84 155 7 8 15 27 19 42 8 34 34 60 55 56 12 -2 17 -16 19
-52z m-528 -751 c-18 -104 -9 -293 15 -357 5 -12 -2 -21 -27 -33 -18 -10 -43
-26 -55 -37 -19 -17 -39 -21 -145 -25 -81 -2 -150 1 -203 11 -92 16 -243 69
-279 97 -22 18 -23 21 -10 56 7 21 13 53 14 71 0 31 1 32 44 32 53 0 175 23
232 43 67 24 347 165 379 191 38 30 46 18 35 -49z m620 -310 c29 -15 54 -42
64 -69 5 -15 3 -17 -11 -11 -77 34 -125 44 -200 45 -114 0 -218 -22 -304 -65
-75 -38 -201 -132 -222 -166 -18 -28 -27 -23 -27 16 0 68 97 146 268 215 62
25 130 44 174 49 89 11 223 4 258 -14z m-2590 -1634 c17 -32 12 -38 -36 -45
-107 -14 -215 -104 -282 -234 -56 -107 -71 -194 -47 -273 10 -33 16 -62 12
-65 -12 -13 -43 9 -71 48 -26 38 -29 50 -28 122 0 134 60 258 173 360 95 86
253 135 279 87z m-55 -152 c33 -5 67 -12 75 -15 8 -3 56 -9 107 -13 75 -6 99
-12 132 -34 48 -32 60 -66 36 -103 -14 -22 -22 -25 -51 -19 -40 7 -45 -7 -13
-41 28 -30 19 -59 -15 -50 -35 9 -53 -16 -32 -46 18 -25 21 -68 6 -68 -6 0
-21 7 -34 15 -21 14 -25 14 -46 -3 -21 -17 -22 -22 -13 -60 15 -60 5 -64 -108
-42 -174 33 -251 64 -303 119 l-30 31 18 74 c9 41 31 96 48 123 43 70 129 155
148 147 8 -4 42 -11 75 -15z m429 -453 c15 -38 25 -71 22 -73 -3 -4 -56 131
-56 144 0 14 10 -6 34 -71z"/>
<path d="M3970 5590 c-34 -21 -5 -204 39 -244 17 -16 20 -16 35 -1 21 22 20
65 -4 150 -22 77 -46 110 -70 95z"/>
<path d="M4971 5554 c-30 -39 -37 -90 -16 -114 10 -11 23 -20 30 -20 7 0 20
-9 30 -20 14 -15 16 -29 12 -65 -5 -36 -3 -47 9 -52 23 -8 34 14 34 70 0 59
-11 82 -50 102 -34 17 -38 40 -14 73 16 23 13 52 -5 52 -5 0 -19 -12 -30 -26z"/>
<path d="M4266 4868 c-3 -7 -7 -25 -10 -39 -19 -86 -292 -249 -417 -249 -26 0
-51 5 -54 10 -9 15 -45 12 -45 -4 0 -21 52 -38 107 -35 107 5 297 94 389 181
43 40 53 46 63 34 15 -18 49 -27 57 -14 3 5 -8 23 -24 39 -17 17 -34 43 -37
60 -7 30 -23 39 -29 17z"/>
<path d="M4740 7448 c-80 -36 -180 -102 -180 -119 0 -26 17 -24 52 6 43 36
103 65 151 73 33 6 42 12 42 27 0 24 -29 29 -65 13z"/>
<path d="M6717 6395 c-65 -24 -134 -82 -215 -183 -139 -174 -151 -202 -162
-402 -13 -218 -28 -313 -68 -440 -71 -221 -176 -357 -313 -403 -31 -11 -44
-21 -44 -33 0 -29 38 -28 105 2 81 36 174 137 234 254 49 95 106 263 106 313
0 36 19 147 27 160 3 5 12 -1 20 -12 25 -36 73 -54 147 -55 l68 -1 -7 -75 c-3
-41 -10 -138 -15 -215 -10 -151 -24 -214 -67 -287 -51 -87 -172 -217 -273
-293 -142 -108 -223 -216 -174 -232 6 -2 41 33 77 77 42 49 95 99 140 129 39
27 93 71 118 98 68 71 165 202 184 248 25 61 45 169 45 243 0 97 36 465 54
549 19 91 46 144 113 218 65 71 113 161 113 210 0 48 -34 111 -70 130 -36 18
-92 18 -143 0z"/>
<path d="M2406 5248 c-7 -13 -30 -50 -51 -83 -21 -33 -38 -61 -39 -62 -1 -1
-33 -8 -72 -17 -182 -37 -393 -200 -418 -322 -5 -21 -2 -35 8 -43 21 -18 32
-8 45 42 26 106 249 261 391 274 50 5 60 3 60 -10 0 -34 126 -50 180 -22 34
17 45 35 54 88 6 31 2 43 -20 75 -74 101 -111 122 -138 80z"/>
<path d="M2598 5109 c-9 -24 3 -39 31 -39 76 0 216 -87 248 -155 18 -37 33
-44 51 -22 26 31 -64 134 -167 190 -60 33 -155 48 -163 26z"/>
<path d="M2985 5003 c-39 -20 -47 -35 -32 -51 11 -10 20 -10 51 3 21 9 62 16
90 15 74 -2 76 -2 76 19 0 11 -9 21 -22 25 -43 11 -133 5 -163 -11z"/>
<path d="M1050 4843 c-22 -28 -22 -48 -4 -110 6 -21 3 -23 -30 -23 -55 0 -90
-39 -83 -92 6 -43 32 -77 85 -110 48 -29 190 -38 228 -13 27 17 27 17 20 110
-7 108 -19 147 -57 194 -60 74 -122 91 -159 44z"/>
<path d="M2134 4736 c-3 -8 -4 -31 -2 -52 2 -31 7 -39 23 -39 16 0 21 8 23 44
2 28 -1 47 -10 52 -19 12 -28 11 -34 -5z"/>
<path d="M1695 4733 c-41 -9 -74 -25 -79 -39 -6 -15 18 -136 36 -186 9 -25 15
-28 56 -28 81 0 144 74 127 151 -9 38 -76 109 -101 108 -11 -1 -28 -3 -39 -6z"/>
<path d="M2877 4713 c-4 -3 -4 -23 -1 -44 4 -24 2 -44 -5 -53 -6 -7 -12 -31
-14 -52 -2 -33 1 -39 18 -39 14 0 21 9 26 32 3 18 12 39 18 47 19 22 3 116
-19 116 -9 0 -20 -3 -23 -7z"/>
<path d="M2317 4693 c-10 -10 -8 -81 2 -87 16 -10 41 5 47 29 10 40 -26 82
-49 58z"/>
<path d="M2456 4556 c-31 -49 -54 -91 -51 -94 3 -4 9 -2 13 4 60 87 102 158
99 167 -2 6 -29 -29 -61 -77z"/>
<path d="M1910 4555 c-20 -24 4 -46 43 -38 42 8 53 19 37 38 -16 19 -64 20
-80 0z"/>
<path d="M2575 4498 c-63 -35 -126 -80 -121 -85 7 -8 146 75 146 87 0 12 0 12
-25 -2z"/>
<path d="M2152 4478 c-20 -20 -14 -54 13 -66 27 -12 32 -31 14 -49 -16 -16 -4
-43 18 -43 10 0 30 12 44 28 15 15 38 35 53 45 33 23 32 60 -1 65 -16 2 -23
-2 -23 -12 0 -27 -38 -18 -52 12 -14 30 -46 40 -66 20z"/>
<path d="M1312 4423 c-108 -53 -67 -230 87 -383 91 -90 199 -153 225 -131 28
23 18 37 -46 69 -74 37 -148 98 -193 160 l-32 45 43 42 c24 25 48 60 55 84 14
46 25 44 75 -9 16 -16 34 -30 41 -30 17 0 35 38 26 54 -11 20 -102 89 -136
104 -39 17 -106 15 -145 -5z"/>
<path d="M1913 4404 c-14 -37 68 -66 90 -32 8 12 7 20 -2 32 -18 21 -80 21
-88 0z"/>
<path d="M2470 4360 c0 -6 38 -10 95 -10 57 0 95 4 95 10 0 6 -38 10 -95 10
-57 0 -95 -4 -95 -10z"/>
<path d="M1993 4258 c-34 -17 -60 -35 -57 -39 4 -8 144 57 144 67 0 10 -29 1
-87 -28z"/>
<path d="M3150 4217 c0 -31 27 -67 50 -67 29 0 32 15 9 54 -24 42 -59 49 -59
13z"/>
<path d="M2042 4168 c-34 -34 -59 -64 -56 -67 3 -3 32 23 66 57 34 34 60 64
57 67 -3 3 -33 -23 -67 -57z"/>
<path d="M2126 4112 c-28 -84 -30 -92 -18 -92 4 0 19 33 31 73 13 39 26 78 28
85 3 6 1 12 -5 12 -6 0 -22 -35 -36 -78z"/>
<path d="M5525 4036 c-13 -9 -16 -20 -11 -40 5 -22 11 -27 34 -24 21 2 28 9
30 30 4 34 -26 54 -53 34z"/>
<path d="M5727 3944 c-25 -25 8 -70 43 -59 32 10 24 59 -10 63 -14 2 -29 0
-33 -4z"/>
<path d="M5524 3806 c-11 -28 1 -51 28 -54 31 -4 48 29 28 53 -16 19 -49 19
-56 1z"/>
<path d="M1 1863 l-1 -1863 1863 1 c1156 1 1826 5 1767 11 -1581 147 -2935
1225 -3432 2732 -89 271 -161 610 -186 886 -6 59 -10 -611 -11 -1767z"/>
<path d="M7986 3628 c-9 -141 -51 -390 -95 -571 -354 -1458 -1490 -2594 -2948
-2948 -170 -41 -411 -82 -573 -97 -59 -6 611 -10 1768 -11 l1862 -1 0 1860 c0
1023 -2 1860 -4 1860 -1 0 -6 -42 -10 -92z"/>
<path d="M2857 1874 c-15 -16 -6 -44 16 -48 12 -3 283 -16 602 -29 494 -21
582 -23 595 -11 12 12 12 16 0 28 -12 11 -122 19 -530 35 -283 12 -551 23
-595 27 -44 3 -84 2 -88 -2z"/>
<path d="M5953 1720 c-108 -12 -170 -29 -232 -64 -88 -50 -111 -67 -111 -82 0
-30 32 -25 93 14 35 22 85 47 113 57 60 20 259 38 334 29 103 -11 221 -56 234
-89 3 -8 -6 -91 -20 -183 -13 -92 -27 -185 -30 -207 -3 -22 -12 -72 -20 -112
-8 -40 -14 -102 -14 -138 0 -63 1 -66 23 -63 19 3 22 10 25 58 1 30 9 93 17
140 26 151 75 482 75 509 0 33 -66 78 -160 110 -75 25 -215 34 -327 21z"/>
<path d="M4345 1668 c-2 -7 -52 -204 -110 -438 -58 -234 -110 -442 -116 -462
-14 -53 -95 -113 -174 -127 -71 -13 -185 -13 -280 -1 -38 6 -144 16 -235 24
-91 8 -178 17 -195 20 -16 3 -84 13 -150 22 -66 9 -165 27 -220 40 -55 13
-194 35 -310 49 -347 41 -382 46 -493 71 -59 14 -142 27 -184 31 -74 6 -77 7
-88 36 -24 70 0 152 85 289 31 49 55 97 53 106 -5 24 -37 27 -45 5 -4 -10 -27
-49 -52 -87 -94 -147 -120 -249 -85 -336 20 -50 38 -60 108 -60 30 0 128 -15
218 -34 91 -19 193 -37 229 -41 234 -23 432 -50 544 -75 72 -15 171 -33 220
-40 50 -6 133 -17 185 -25 52 -7 129 -16 170 -20 41 -3 136 -13 210 -22 155
-18 307 -13 389 12 59 18 151 95 151 126 0 10 51 224 114 475 63 252 112 462
110 466 -8 13 -44 9 -49 -4z"/>
<path d="M3333 1619 c-7 -7 -13 -21 -13 -31 0 -22 57 -88 76 -88 21 0 29 29
15 53 -12 19 -11 20 33 15 66 -8 89 -31 82 -83 -7 -49 3 -68 35 -63 21 3 24 9
27 50 4 66 -19 115 -63 133 -51 22 -177 31 -192 14z"/>
<path d="M3634 1566 c-3 -7 9 -34 27 -60 35 -53 71 -61 77 -17 7 46 -89 117
-104 77z"/>
<path d="M3266 1555 c-21 -22 -20 -27 9 -59 27 -29 42 -30 59 -3 13 20 2 43
-31 64 -18 12 -23 12 -37 -2z"/>
<path d="M5693 1534 c-9 -23 29 -49 102 -71 73 -22 297 -24 390 -4 79 18 126
41 123 61 -4 19 -35 17 -108 -6 -41 -13 -93 -17 -205 -18 -142 -1 -154 1 -216
27 -77 32 -78 32 -86 11z"/>
<path d="M3456 1524 c-21 -21 -20 -41 3 -54 11 -5 22 -10 25 -10 8 0 36 31 36
40 0 11 -29 40 -40 40 -5 0 -16 -7 -24 -16z"/>
<path d="M5593 1523 c-19 -7 -17 -25 22 -200 71 -321 115 -463 145 -463 6 0
10 -7 10 -15 0 -21 77 -62 131 -70 57 -8 228 11 294 34 37 13 51 23 53 39 4
29 -20 38 -50 18 -13 -8 -66 -21 -118 -28 -193 -25 -264 -5 -307 88 -25 55
-79 265 -126 483 -23 112 -29 125 -54 114z"/>
<path d="M3410 1429 c-14 -11 -33 -27 -42 -34 -24 -20 -23 -62 2 -77 11 -7 20
-23 20 -35 0 -30 37 -55 62 -42 19 10 25 44 8 54 -21 13 -9 25 25 25 24 0 37
6 45 21 16 28 -5 52 -41 47 -23 -4 -25 -2 -16 13 13 22 2 49 -20 49 -10 -1
-29 -10 -43 -21z"/>
<path d="M3056 1361 c-9 -16 -16 -39 -16 -49 0 -17 -11 -22 -63 -31 -35 -6
-91 -11 -124 -11 -55 0 -60 2 -59 23 1 31 -37 35 -58 5 -38 -54 -10 -98 64
-98 48 0 48 0 62 -42 14 -47 43 -62 64 -33 9 12 10 24 3 43 -16 42 -5 52 55
52 56 0 80 16 69 48 -3 7 4 12 17 12 15 0 25 11 36 36 19 45 15 68 -13 72 -16
2 -26 -5 -37 -27z"/>
<path d="M3223 1343 c-7 -2 -13 -15 -13 -28 0 -18 10 -29 36 -41 37 -18 85
-61 111 -100 13 -21 13 -25 -8 -54 -18 -24 -21 -35 -13 -48 22 -34 50 -26 78
22 32 55 114 119 193 151 60 25 83 58 48 71 -20 8 -132 -39 -185 -77 -22 -16
-44 -29 -50 -29 -5 0 -38 26 -72 59 -55 50 -99 83 -110 80 -2 0 -9 -3 -15 -6z"/>
<path d="M6223 1230 c-53 -24 -61 -56 -11 -46 41 8 78 32 78 51 0 19 -15 18
-67 -5z"/>
<path d="M5933 1211 c-97 -5 -126 -10 -140 -23 -23 -24 -11 -33 28 -19 18 6
80 11 138 11 58 0 112 4 120 9 15 10 6 32 -12 29 -7 -1 -67 -4 -134 -7z"/>
<path d="M6161 1118 c-14 -5 -34 -7 -45 -6 -13 2 -22 -3 -24 -14 -3 -14 3 -18
30 -18 47 0 78 10 78 26 0 19 -12 23 -39 12z"/>
<path d="M5893 1090 c-27 -11 -48 -46 -32 -55 5 -4 18 0 28 9 12 11 36 16 74
16 42 0 57 4 57 14 0 22 -86 33 -127 16z"/>
</g>
</svg>
